<svg viewBox="0 0 1070 400" xmlns="http://www.w3.org/2000/svg"><g><g><g><g><g><line x1="41.171875" y1="365" x2="36.171875" y2="365" style="visibility: inherit;" fill="rgb(0, 0, 0)" stroke="rgb(204, 204, 204)" stroke-width="1px"></line><line x1="41.171875" y1="319.375" x2="36.171875" y2="319.375" style="visibility: inherit;" fill="rgb(0, 0, 0)" stroke="rgb(204, 204, 204)" stroke-width="1px"></line><line x1="41.171875" y1="273.75" x2="36.171875" y2="273.75" style="visibility: inherit;" fill="rgb(0, 0, 0)" stroke="rgb(204, 204, 204)" stroke-width="1px"></line><line x1="41.171875" y1="228.125" x2="36.171875" y2="228.125" style="visibility: inherit;" fill="rgb(0, 0, 0)" stroke="rgb(204, 204, 204)" stroke-width="1px"></line><line x1="41.171875" y1="182.5" x2="36.171875" y2="182.5" style="visibility: inherit;" fill="rgb(0, 0, 0)" stroke="rgb(204, 204, 204)" stroke-width="1px"></line><line x1="41.171875" y1="136.875" x2="36.171875" y2="136.875" style="visibility: inherit;" fill="rgb(0, 0, 0)" stroke="rgb(204, 204, 204)" stroke-width="1px"></line><line x1="41.171875" y1="91.25" x2="36.171875" y2="91.25" style="visibility: inherit;" fill="rgb(0, 0, 0)" stroke="rgb(204, 204, 204)" stroke-width="1px"></line><line x1="41.171875" y1="45.625" x2="36.171875" y2="45.625" style="visibility: inherit;" fill="rgb(0, 0, 0)" stroke="rgb(204, 204, 204)" stroke-width="1px"></line><line x1="41.171875" y1="0" x2="36.171875" y2="0" style="visibility: inherit;" fill="rgb(0, 0, 0)" stroke="rgb(204, 204, 204)" stroke-width="1px"></line></g><g transform="translate(31.171875, 0)"><text x="0" y="365" dx="0em" dy="0.3em" style="text-anchor: end; visibility: hidden; font-family: Roboto, sans-serif; font-size: 12px; font-weight: 200;" fill="rgb(33, 33, 33)" stroke="none" stroke-width="1px">270</text><text x="0" y="319.375" dx="0em" dy="0.3em" style="text-anchor: end; visibility: inherit; font-family: Roboto, sans-serif; font-size: 12px; font-weight: 200;" fill="rgb(33, 33, 33)" stroke="none" stroke-width="1px">280</text><text x="0" y="273.75" dx="0em" dy="0.3em" style="text-anchor: end; visibility: inherit; font-family: Roboto, sans-serif; font-size: 12px; font-weight: 200;" fill="rgb(33, 33, 33)" stroke="none" stroke-width="1px">290</text><text x="0" y="228.125" dx="0em" dy="0.3em" style="text-anchor: end; visibility: inherit; font-family: Roboto, sans-serif; font-size: 12px; font-weight: 200;" fill="rgb(33, 33, 33)" stroke="none" stroke-width="1px">300</text><text x="0" y="182.5" dx="0em" dy="0.3em" style="text-anchor: end; visibility: inherit; font-family: Roboto, sans-serif; font-size: 12px; font-weight: 200;" fill="rgb(33, 33, 33)" stroke="none" stroke-width="1px">310</text><text x="0" y="136.875" dx="0em" dy="0.3em" style="text-anchor: end; visibility: inherit; font-family: Roboto, sans-serif; font-size: 12px; font-weight: 200;" fill="rgb(33, 33, 33)" stroke="none" stroke-width="1px">320</text><text x="0" y="91.25" dx="0em" dy="0.3em" style="text-anchor: end; visibility: inherit; font-family: Roboto, sans-serif; font-size: 12px; font-weight: 200;" fill="rgb(33, 33, 33)" stroke="none" stroke-width="1px">330</text><text x="0" y="45.625" dx="0em" dy="0.3em" style="text-anchor: end; visibility: inherit; font-family: Roboto, sans-serif; font-size: 12px; font-weight: 200;" fill="rgb(33, 33, 33)" stroke="none" stroke-width="1px">340</text><text x="0" y="0" dx="0em" dy="0.3em" style="text-anchor: end; visibility: hidden; font-family: Roboto, sans-serif; font-size: 12px; font-weight: 200;" fill="rgb(33, 33, 33)" stroke="none" stroke-width="1px">350</text></g><line x1="41.171875" y1="0" x2="41.171875" y2="365" fill="rgb(0, 0, 0)" stroke="rgb(204, 204, 204)" stroke-width="1px"></line></g></g><g transform="translate(41, 0)" clip-path="url(#clip_0)"><clipPath id="clip_0"><rect width="1028" height="365"></rect></clipPath><g><g><g><line x1="0" y1="0" x2="0" y2="365" fill="rgb(0, 0, 0)" stroke="rgb(66, 66, 66)" stroke-width="1px" opacity="0.25"></line><line x1="73.48772321428571" y1="0" x2="73.48772321428571" y2="365" fill="rgb(0, 0, 0)" stroke="rgb(66, 66, 66)" stroke-width="1px" opacity="0.25"></line><line x1="146.97544642857142" y1="0" x2="146.97544642857142" y2="365" fill="rgb(0, 0, 0)" stroke="rgb(66, 66, 66)" stroke-width="1px" opacity="0.25"></line><line x1="220.46316964285714" y1="0" x2="220.46316964285714" y2="365" fill="rgb(0, 0, 0)" stroke="rgb(66, 66, 66)" stroke-width="1px" opacity="0.25"></line><line x1="293.95089285714283" y1="0" x2="293.95089285714283" y2="365" fill="rgb(0, 0, 0)" stroke="rgb(66, 66, 66)" stroke-width="1px" opacity="0.25"></line><line x1="367.43861607142856" y1="0" x2="367.43861607142856" y2="365" fill="rgb(0, 0, 0)" stroke="rgb(66, 66, 66)" stroke-width="1px" opacity="0.25"></line><line x1="440.9263392857143" y1="0" x2="440.9263392857143" y2="365" fill="rgb(0, 0, 0)" stroke="rgb(66, 66, 66)" stroke-width="1px" opacity="0.25"></line><line x1="514.4140625" y1="0" x2="514.4140625" y2="365" fill="rgb(0, 0, 0)" stroke="rgb(66, 66, 66)" stroke-width="1px" opacity="0.25"></line><line x1="587.9017857142857" y1="0" x2="587.9017857142857" y2="365" fill="rgb(0, 0, 0)" stroke="rgb(66, 66, 66)" stroke-width="1px" opacity="0.25"></line><line x1="661.3895089285714" y1="0" x2="661.3895089285714" y2="365" fill="rgb(0, 0, 0)" stroke="rgb(66, 66, 66)" stroke-width="1px" opacity="0.25"></line><line x1="734.8772321428571" y1="0" x2="734.8772321428571" y2="365" fill="rgb(0, 0, 0)" stroke="rgb(66, 66, 66)" stroke-width="1px" opacity="0.25"></line><line x1="808.3649553571429" y1="0" x2="808.3649553571429" y2="365" fill="rgb(0, 0, 0)" stroke="rgb(66, 66, 66)" stroke-width="1px" opacity="0.25"></line><line x1="881.8526785714286" y1="0" x2="881.8526785714286" y2="365" fill="rgb(0, 0, 0)" stroke="rgb(66, 66, 66)" stroke-width="1px" opacity="0.25"></line><line x1="955.3404017857143" y1="0" x2="955.3404017857143" y2="365" fill="rgb(0, 0, 0)" stroke="rgb(66, 66, 66)" stroke-width="1px" opacity="0.25"></line><line x1="1028.828125" y1="0" x2="1028.828125" y2="365" fill="rgb(0, 0, 0)" stroke="rgb(66, 66, 66)" stroke-width="1px" opacity="0.25"></line></g><g><line x1="0" y1="365" x2="1028.828125" y2="365" fill="rgb(0, 0, 0)" stroke="rgb(66, 66, 66)" stroke-width="1px" opacity="0.25"></line><line x1="0" y1="319.375" x2="1028.828125" y2="319.375" fill="rgb(0, 0, 0)" stroke="rgb(66, 66, 66)" stroke-width="1px" opacity="0.25"></line><line x1="0" y1="273.75" x2="1028.828125" y2="273.75" fill="rgb(0, 0, 0)" stroke="rgb(66, 66, 66)" stroke-width="1px" opacity="0.25"></line><line x1="0" y1="228.125" x2="1028.828125" y2="228.125" fill="rgb(0, 0, 0)" stroke="rgb(66, 66, 66)" stroke-width="1px" opacity="0.25"></line><line x1="0" y1="182.5" x2="1028.828125" y2="182.5" fill="rgb(0, 0, 0)" stroke="rgb(66, 66, 66)" stroke-width="1px" opacity="0.25"></line><line x1="0" y1="136.875" x2="1028.828125" y2="136.875" fill="rgb(0, 0, 0)" stroke="rgb(66, 66, 66)" stroke-width="1px" opacity="0.25"></line><line x1="0" y1="91.25" x2="1028.828125" y2="91.25" fill="rgb(0, 0, 0)" stroke="rgb(66, 66, 66)" stroke-width="1px" opacity="0.25"></line><line x1="0" y1="45.625" x2="1028.828125" y2="45.625" fill="rgb(0, 0, 0)" stroke="rgb(66, 66, 66)" stroke-width="1px" opacity="0.25"></line><line x1="0" y1="0" x2="1028.828125" y2="0" fill="rgb(0, 0, 0)" stroke="rgb(66, 66, 66)" stroke-width="1px" opacity="0.25"></line></g></g></g><g><g><line x1="0" y1="1596.875" x2="1028.828125" y2="1596.875" fill="rgb(0, 0, 0)" stroke="rgb(153, 153, 153)" stroke-width="1.5px"></line></g></g><g><g><line x1="-2046373900.3180804" y1="0" x2="-2046373900.3180804" y2="365" fill="rgb(0, 0, 0)" stroke="rgb(153, 153, 153)" stroke-width="1.5px"></line></g></g><g><g><g><g><g><path stroke="rgb(255, 112, 67)" stroke-width="2px" d="M93.95895331101191,-68.49216070509404L105.32872888764881,26.611364420635375L116.52090913318453,85.98035875213536L127.86618880208333,124.7574566996013L138.95303664434522,152.2313881076608L150.36812965029762,172.09869956703727L161.84323763020834,187.12460448956975L172.99622442336312,198.79271962265383L184.39906947544645,208.79417632812527L195.54225790550595,217.14779252181356L206.9708236607143,224.56551531076764L218.48022591145835,230.88566013721766L229.97493061755952,236.40249052516089L241.19405636160712,241.6037525631737L252.46462351190476,246.72427321645236L263.7168187313988,250.95747625107975L275.1110902157738,254.95300294516778L286.3926805245536,258.95402714836035L297.7416345796131,261.9217659626645L308.79173856026785,265.3641513690809L320.0868016183036,268.4907080805635L331.5570104166666,271.02693817065585L342.9010652901786,273.90546838480736L353.96831640625004,276.0588877927801L365.17396940104163,278.66292693398725L376.23754613095235,280.6511720371594L387.38195935639885,282.9014328068436L398.4332881324405,284.63464140550553L409.51278720238093,286.4982854587205L420.62045656622024,288.90727002345955L431.69260686383933,290.4063840486916L442.8566168154762,291.98756978398814L454.0181771763393,293.6559012779395L464.98744466145837,295.24132064189797L476.14165625,296.79900159219414L487.1795122767857,298.19203122733074L498.42925790550595,299.17343198794424L509.4671139322916,300.290537487968L520.8111688058036,302.17220381716015L531.7743123139882,303.2516469095681L542.7680757068451,304.3394680297473L553.9210625,305.43413146884023L565.0483285900298,306.5055382801754L576.1449747953869,307.7381380741318L587.2330474330357,308.300777018997L598.2721282552083,309.3648054688066L609.4202158668154,310.54489201340874L620.4041808965774,311.3785898746818L631.7041431361607,312.5033981460299L642.734650390625,313.14853625901276L653.8741644345239,314.1965430369541L665.0063297061012,314.85565138553136L676.2266802455357,315.4022397668753L687.2167692522321,315.76175511367245L698.2962683221725,316.4665680352775L709.4492551153273,317.67475230325647L720.5177310267857,318.06752208831494L731.5494630766369,318.88420441973597L742.7734880022322,319.43396226083905L753.8493126860119,320.1446146542451L764.8467504650298,320.8390342662632L776.0732249813988,321.303584222856L787.1380265066964,321.68254394545954L798.0950460379464,322.2262871140298L809.3558148251487,322.89428699505373L820.4108179873512,323.8677824413164L831.4033565848214,324.34840099027787L842.5257234933035,325.03190428199156L853.5525563616071,324.9850440080091L864.6932952008927,325.8764311494912L876.2051470424108,326.6008698564155L888.0746391369047,326.8529596560801L899.5387239583333,327.20820785594077L910.7627488839286,327.38574196112967L921.8263256138393,328.1568452182959L932.8825535714286,328.42331320664294L944.0722842261905,328.6632851296802" style="fill: none;" fill="none"></path></g></g></g></g><g opacity="0.2"><g><g><g><path stroke="rgb(255, 112, 67)" stroke-width="2px" d="M71.47048521205356,-199.42794990539554L82.63939434523809,9.753374099731436L93.95895331101191,85.21075820922853L105.32872888764881,123.41208839416502L116.52090913318453,148.7542362213135L127.86618880208333,166.56118583679202L138.95303664434522,182.14773178100586L150.36812965029762,193.84512519836426L161.84323763020834,203.6164608001709L172.99622442336312,211.61740493774417L184.39906947544645,219.79517936706543L195.54225790550595,226.3398494720459L206.9708236607143,232.7294101715088L218.48022591145835,237.84231185913086L229.97493061755952,242.4752655029297L241.19405636160712,247.32932662963867L252.46462351190476,252.36105346679688L263.7168187313988,255.61751556396487L275.1110902157738,259.35141944885254L286.3926805245536,263.35850524902344L297.7416345796131,265.1887683868408L308.79173856026785,269.15366554260254L320.0868016183036,271.9325466156006L331.5570104166666,273.8189220428467L342.9010652901786,277.0742702484131L353.96831640625004,278.42945861816406L365.17396940104163,281.5295581817627L376.23754613095235,282.8399124145508L387.38195935639885,285.3786106109619L398.4332881324405,286.5426273345947L409.51278720238093,288.54986000061035L420.62045656622024,291.55917739868164L431.69260686383933,292.0566692352295L442.8566168154762,293.7282028198242L454.0181771763393,295.492467880249L464.98744466145837,296.9866142272949L476.14165625,298.5137596130371L487.1795122767857,299.7255344390869L498.42925790550595,300.25379753112793L509.4671139322916,301.5202922821045L520.8111688058036,304.2436180114746L531.7743123139882,304.43994140625L542.7680757068451,305.53698539733887L553.9210625,306.63918113708496L565.0483285900298,307.68498611450195L576.1449747953869,309.0950336456299L587.2330474330357,308.92015266418457L598.2721282552083,310.53613090515137L609.4202158668154,311.84397888183594L620.4041808965774,312.2963581085205L631.7041431361607,313.74163246154785L642.734650390625,313.8587303161621L653.8741644345239,315.3502311706543L665.0063297061012,315.5812244415283L676.2266802455357,316.0039463043213L687.2167692522321,316.1575241088867L698.2962683221725,317.2424545288086L709.4492551153273,319.00477027893066L720.5177310267857,318.49989891052246L731.5494630766369,319.78324127197266L742.7734880022322,320.03915786743164L753.8493126860119,320.92692947387695L764.8467504650298,321.603479385376L776.0732249813988,321.81497955322266L787.1380265066964,322.09971809387207L798.0950460379464,322.82486152648926L809.3558148251487,323.62964820861816L820.4108179873512,324.93944549560547L831.4033565848214,324.87748527526855L842.5257234933035,325.7843322753906L853.5525563616071,324.93345832824707L864.6932952008927,326.8577060699463L876.2051470424108,327.3983612060547L888.0746391369047,327.1304702758789L899.5387239583333,327.5992794036865L910.7627488839286,327.58117866516113L921.8263256138393,329.0057067871094L932.8825535714286,328.7166519165039L944.0722842261905,328.9274559020996" style="fill: none;" fill="none"></path></g></g></g></g></g></g><g transform="translate(41, 365)" clip-path="url(#clip_1)"><clipPath id="clip_1"><rect width="1028" height="35"></rect></clipPath><g><g visibility="inherit"><g><g transform="translate(36.743861607142854,0)" style="visibility: inherit;"><text transform="translate(0,14)" style="text-anchor: middle; font-family: Roboto, sans-serif; font-size: 12px; font-weight: 200;" fill="rgb(33, 33, 33)" stroke="none" stroke-width="1px">08:53 PM</text></g><g transform="translate(110.23158482142857,0)" style="visibility: inherit;"><text transform="translate(0,14)" style="text-anchor: middle; font-family: Roboto, sans-serif; font-size: 12px; font-weight: 200;" fill="rgb(33, 33, 33)" stroke="none" stroke-width="1px">08:54 PM</text></g><g transform="translate(183.71930803571428,0)" style="visibility: inherit;"><text transform="translate(0,14)" style="text-anchor: middle; font-family: Roboto, sans-serif; font-size: 12px; font-weight: 200;" fill="rgb(33, 33, 33)" stroke="none" stroke-width="1px">08:55 PM</text></g><g transform="translate(257.20703125,0)" style="visibility: inherit;"><text transform="translate(0,14)" style="text-anchor: middle; font-family: Roboto, sans-serif; font-size: 12px; font-weight: 200;" fill="rgb(33, 33, 33)" stroke="none" stroke-width="1px">08:56 PM</text></g><g transform="translate(330.6947544642857,0)" style="visibility: inherit;"><text transform="translate(0,14)" style="text-anchor: middle; font-family: Roboto, sans-serif; font-size: 12px; font-weight: 200;" fill="rgb(33, 33, 33)" stroke="none" stroke-width="1px">08:57 PM</text></g><g transform="translate(404.18247767857144,0)" style="visibility: inherit;"><text transform="translate(0,14)" style="text-anchor: middle; font-family: Roboto, sans-serif; font-size: 12px; font-weight: 200;" fill="rgb(33, 33, 33)" stroke="none" stroke-width="1px">08:58 PM</text></g><g transform="translate(477.67020089285717,0)" style="visibility: inherit;"><text transform="translate(0,14)" style="text-anchor: middle; font-family: Roboto, sans-serif; font-size: 12px; font-weight: 200;" fill="rgb(33, 33, 33)" stroke="none" stroke-width="1px">08:59 PM</text></g><g transform="translate(551.1579241071429,0)" style="visibility: inherit;"><text transform="translate(0,14)" style="text-anchor: middle; font-family: Roboto, sans-serif; font-size: 12px; font-weight: 200;" fill="rgb(33, 33, 33)" stroke="none" stroke-width="1px">09:00 PM</text></g><g transform="translate(624.6456473214286,0)" style="visibility: inherit;"><text transform="translate(0,14)" style="text-anchor: middle; font-family: Roboto, sans-serif; font-size: 12px; font-weight: 200;" fill="rgb(33, 33, 33)" stroke="none" stroke-width="1px">09:01 PM</text></g><g transform="translate(698.1333705357143,0)" style="visibility: inherit;"><text transform="translate(0,14)" style="text-anchor: middle; font-family: Roboto, sans-serif; font-size: 12px; font-weight: 200;" fill="rgb(33, 33, 33)" stroke="none" stroke-width="1px">09:02 PM</text></g><g transform="translate(771.62109375,0)" style="visibility: inherit;"><text transform="translate(0,14)" style="text-anchor: middle; font-family: Roboto, sans-serif; font-size: 12px; font-weight: 200;" fill="rgb(33, 33, 33)" stroke="none" stroke-width="1px">09:03 PM</text></g><g transform="translate(845.1088169642857,0)" style="visibility: inherit;"><text transform="translate(0,14)" style="text-anchor: middle; font-family: Roboto, sans-serif; font-size: 12px; font-weight: 200;" fill="rgb(33, 33, 33)" stroke="none" stroke-width="1px">09:04 PM</text></g><g transform="translate(918.5965401785714,0)" style="visibility: inherit;"><text transform="translate(0,14)" style="text-anchor: middle; font-family: Roboto, sans-serif; font-size: 12px; font-weight: 200;" fill="rgb(33, 33, 33)" stroke="none" stroke-width="1px">09:05 PM</text></g><g transform="translate(992.0842633928571,0)" style="visibility: inherit;"><text transform="translate(0,14)" style="text-anchor: middle; font-family: Roboto, sans-serif; font-size: 12px; font-weight: 200;" fill="rgb(33, 33, 33)" stroke="none" stroke-width="1px">09:06 PM</text></g></g><g><line x1="0" y1="0" x2="0" y2="17" fill="rgb(0, 0, 0)" stroke="rgb(204, 204, 204)" stroke-width="1px"></line><line x1="73.48772321428571" y1="0" x2="73.48772321428571" y2="17" fill="rgb(0, 0, 0)" stroke="rgb(204, 204, 204)" stroke-width="1px"></line><line x1="146.97544642857142" y1="0" x2="146.97544642857142" y2="17" fill="rgb(0, 0, 0)" stroke="rgb(204, 204, 204)" stroke-width="1px"></line><line x1="220.46316964285714" y1="0" x2="220.46316964285714" y2="17" fill="rgb(0, 0, 0)" stroke="rgb(204, 204, 204)" stroke-width="1px"></line><line x1="293.95089285714283" y1="0" x2="293.95089285714283" y2="17" fill="rgb(0, 0, 0)" stroke="rgb(204, 204, 204)" stroke-width="1px"></line><line x1="367.43861607142856" y1="0" x2="367.43861607142856" y2="17" fill="rgb(0, 0, 0)" stroke="rgb(204, 204, 204)" stroke-width="1px"></line><line x1="440.9263392857143" y1="0" x2="440.9263392857143" y2="17" fill="rgb(0, 0, 0)" stroke="rgb(204, 204, 204)" stroke-width="1px"></line><line x1="514.4140625" y1="0" x2="514.4140625" y2="17" fill="rgb(0, 0, 0)" stroke="rgb(204, 204, 204)" stroke-width="1px"></line><line x1="587.9017857142857" y1="0" x2="587.9017857142857" y2="17" fill="rgb(0, 0, 0)" stroke="rgb(204, 204, 204)" stroke-width="1px"></line><line x1="661.3895089285714" y1="0" x2="661.3895089285714" y2="17" fill="rgb(0, 0, 0)" stroke="rgb(204, 204, 204)" stroke-width="1px"></line><line x1="734.8772321428571" y1="0" x2="734.8772321428571" y2="17" fill="rgb(0, 0, 0)" stroke="rgb(204, 204, 204)" stroke-width="1px"></line><line x1="808.3649553571429" y1="0" x2="808.3649553571429" y2="17" fill="rgb(0, 0, 0)" stroke="rgb(204, 204, 204)" stroke-width="1px"></line><line x1="881.8526785714286" y1="0" x2="881.8526785714286" y2="17" fill="rgb(0, 0, 0)" stroke="rgb(204, 204, 204)" stroke-width="1px"></line><line x1="955.3404017857143" y1="0" x2="955.3404017857143" y2="17" fill="rgb(0, 0, 0)" stroke="rgb(204, 204, 204)" stroke-width="1px"></line><line x1="1028.828125" y1="0" x2="1028.828125" y2="17" fill="rgb(0, 0, 0)" stroke="rgb(204, 204, 204)" stroke-width="1px"></line></g><line x1="0" y1="0" x2="1028.828125" y2="0" style="visibility: inherit;" fill="rgb(0, 0, 0)" stroke="rgb(204, 204, 204)" stroke-width="1px"></line></g><g visibility="inherit"><g><g transform="translate(514.4140625,0)" style="visibility: inherit;"><text transform="translate(0,31)" style="text-anchor: middle; font-family: Roboto, sans-serif; font-size: 12px; font-weight: 200;" fill="rgb(33, 33, 33)" stroke="none" stroke-width="1px">December 11, 2022</text></g></g><g><line x1="0" y1="17" x2="0" y2="34" fill="rgb(0, 0, 0)" stroke="rgb(204, 204, 204)" stroke-width="1px"></line><line x1="1028.828125" y1="17" x2="1028.828125" y2="34" fill="rgb(0, 0, 0)" stroke="rgb(204, 204, 204)" stroke-width="1px"></line></g><line x1="0" y1="17" x2="1028.828125" y2="17" style="visibility: inherit;" fill="rgb(0, 0, 0)" stroke="rgb(204, 204, 204)" stroke-width="1px"></line></g></g></g></g></g></svg>