<svg viewBox="0 0 1070 400" xmlns="http://www.w3.org/2000/svg"><g><g><g><g><g><line x1="30.78125" y1="365" x2="25.78125" y2="365" style="visibility: inherit;" fill="rgb(0, 0, 0)" stroke="rgb(204, 204, 204)" stroke-width="1px"></line><line x1="30.78125" y1="324.4444444444444" x2="25.78125" y2="324.4444444444444" style="visibility: inherit;" fill="rgb(0, 0, 0)" stroke="rgb(204, 204, 204)" stroke-width="1px"></line><line x1="30.78125" y1="283.8888888888889" x2="25.78125" y2="283.8888888888889" style="visibility: inherit;" fill="rgb(0, 0, 0)" stroke="rgb(204, 204, 204)" stroke-width="1px"></line><line x1="30.78125" y1="243.33333333333337" x2="25.78125" y2="243.33333333333337" style="visibility: inherit;" fill="rgb(0, 0, 0)" stroke="rgb(204, 204, 204)" stroke-width="1px"></line><line x1="30.78125" y1="202.7777777777778" x2="25.78125" y2="202.7777777777778" style="visibility: inherit;" fill="rgb(0, 0, 0)" stroke="rgb(204, 204, 204)" stroke-width="1px"></line><line x1="30.78125" y1="162.2222222222222" x2="25.78125" y2="162.2222222222222" style="visibility: inherit;" fill="rgb(0, 0, 0)" stroke="rgb(204, 204, 204)" stroke-width="1px"></line><line x1="30.78125" y1="121.66666666666669" x2="25.78125" y2="121.66666666666669" style="visibility: inherit;" fill="rgb(0, 0, 0)" stroke="rgb(204, 204, 204)" stroke-width="1px"></line><line x1="30.78125" y1="81.1111111111111" x2="25.78125" y2="81.1111111111111" style="visibility: inherit;" fill="rgb(0, 0, 0)" stroke="rgb(204, 204, 204)" stroke-width="1px"></line><line x1="30.78125" y1="40.55555555555557" x2="25.78125" y2="40.55555555555557" style="visibility: inherit;" fill="rgb(0, 0, 0)" stroke="rgb(204, 204, 204)" stroke-width="1px"></line><line x1="30.78125" y1="0" x2="25.78125" y2="0" style="visibility: inherit;" fill="rgb(0, 0, 0)" stroke="rgb(204, 204, 204)" stroke-width="1px"></line></g><g transform="translate(20.78125, 0)"><text x="0" y="365" dx="0em" dy="0.3em" style="text-anchor: end; visibility: hidden; font-family: Roboto, sans-serif; font-size: 12px; font-weight: 200;" fill="rgb(33, 33, 33)" stroke="none" stroke-width="1px">37</text><text x="0" y="324.4444444444444" dx="0em" dy="0.3em" style="text-anchor: end; visibility: inherit; font-family: Roboto, sans-serif; font-size: 12px; font-weight: 200;" fill="rgb(33, 33, 33)" stroke="none" stroke-width="1px">38</text><text x="0" y="283.8888888888889" dx="0em" dy="0.3em" style="text-anchor: end; visibility: inherit; font-family: Roboto, sans-serif; font-size: 12px; font-weight: 200;" fill="rgb(33, 33, 33)" stroke="none" stroke-width="1px">39</text><text x="0" y="243.33333333333337" dx="0em" dy="0.3em" style="text-anchor: end; visibility: inherit; font-family: Roboto, sans-serif; font-size: 12px; font-weight: 200;" fill="rgb(33, 33, 33)" stroke="none" stroke-width="1px">40</text><text x="0" y="202.7777777777778" dx="0em" dy="0.3em" style="text-anchor: end; visibility: inherit; font-family: Roboto, sans-serif; font-size: 12px; font-weight: 200;" fill="rgb(33, 33, 33)" stroke="none" stroke-width="1px">41</text><text x="0" y="162.2222222222222" dx="0em" dy="0.3em" style="text-anchor: end; visibility: inherit; font-family: Roboto, sans-serif; font-size: 12px; font-weight: 200;" fill="rgb(33, 33, 33)" stroke="none" stroke-width="1px">42</text><text x="0" y="121.66666666666669" dx="0em" dy="0.3em" style="text-anchor: end; visibility: inherit; font-family: Roboto, sans-serif; font-size: 12px; font-weight: 200;" fill="rgb(33, 33, 33)" stroke="none" stroke-width="1px">43</text><text x="0" y="81.1111111111111" dx="0em" dy="0.3em" style="text-anchor: end; visibility: inherit; font-family: Roboto, sans-serif; font-size: 12px; font-weight: 200;" fill="rgb(33, 33, 33)" stroke="none" stroke-width="1px">44</text><text x="0" y="40.55555555555557" dx="0em" dy="0.3em" style="text-anchor: end; visibility: inherit; font-family: Roboto, sans-serif; font-size: 12px; font-weight: 200;" fill="rgb(33, 33, 33)" stroke="none" stroke-width="1px">45</text><text x="0" y="0" dx="0em" dy="0.3em" style="text-anchor: end; visibility: hidden; font-family: Roboto, sans-serif; font-size: 12px; font-weight: 200;" fill="rgb(33, 33, 33)" stroke="none" stroke-width="1px">46</text></g><line x1="30.78125" y1="0" x2="30.78125" y2="365" fill="rgb(0, 0, 0)" stroke="rgb(204, 204, 204)" stroke-width="1px"></line></g></g><g transform="translate(30, 0)" clip-path="url(#clip_0)"><clipPath id="clip_0"><rect width="1039" height="365"></rect></clipPath><g><g><g><line x1="0" y1="0" x2="0" y2="365" fill="rgb(0, 0, 0)" stroke="rgb(66, 66, 66)" stroke-width="1px" opacity="0.25"></line><line x1="74.22991071428571" y1="0" x2="74.22991071428571" y2="365" fill="rgb(0, 0, 0)" stroke="rgb(66, 66, 66)" stroke-width="1px" opacity="0.25"></line><line x1="148.45982142857142" y1="0" x2="148.45982142857142" y2="365" fill="rgb(0, 0, 0)" stroke="rgb(66, 66, 66)" stroke-width="1px" opacity="0.25"></line><line x1="222.68973214285714" y1="0" x2="222.68973214285714" y2="365" fill="rgb(0, 0, 0)" stroke="rgb(66, 66, 66)" stroke-width="1px" opacity="0.25"></line><line x1="296.91964285714283" y1="0" x2="296.91964285714283" y2="365" fill="rgb(0, 0, 0)" stroke="rgb(66, 66, 66)" stroke-width="1px" opacity="0.25"></line><line x1="371.14955357142856" y1="0" x2="371.14955357142856" y2="365" fill="rgb(0, 0, 0)" stroke="rgb(66, 66, 66)" stroke-width="1px" opacity="0.25"></line><line x1="445.3794642857143" y1="0" x2="445.3794642857143" y2="365" fill="rgb(0, 0, 0)" stroke="rgb(66, 66, 66)" stroke-width="1px" opacity="0.25"></line><line x1="519.609375" y1="0" x2="519.609375" y2="365" fill="rgb(0, 0, 0)" stroke="rgb(66, 66, 66)" stroke-width="1px" opacity="0.25"></line><line x1="593.8392857142857" y1="0" x2="593.8392857142857" y2="365" fill="rgb(0, 0, 0)" stroke="rgb(66, 66, 66)" stroke-width="1px" opacity="0.25"></line><line x1="668.0691964285714" y1="0" x2="668.0691964285714" y2="365" fill="rgb(0, 0, 0)" stroke="rgb(66, 66, 66)" stroke-width="1px" opacity="0.25"></line><line x1="742.2991071428571" y1="0" x2="742.2991071428571" y2="365" fill="rgb(0, 0, 0)" stroke="rgb(66, 66, 66)" stroke-width="1px" opacity="0.25"></line><line x1="816.5290178571429" y1="0" x2="816.5290178571429" y2="365" fill="rgb(0, 0, 0)" stroke="rgb(66, 66, 66)" stroke-width="1px" opacity="0.25"></line><line x1="890.7589285714286" y1="0" x2="890.7589285714286" y2="365" fill="rgb(0, 0, 0)" stroke="rgb(66, 66, 66)" stroke-width="1px" opacity="0.25"></line><line x1="964.9888392857143" y1="0" x2="964.9888392857143" y2="365" fill="rgb(0, 0, 0)" stroke="rgb(66, 66, 66)" stroke-width="1px" opacity="0.25"></line><line x1="1039.21875" y1="0" x2="1039.21875" y2="365" fill="rgb(0, 0, 0)" stroke="rgb(66, 66, 66)" stroke-width="1px" opacity="0.25"></line></g><g><line x1="0" y1="365" x2="1039.21875" y2="365" fill="rgb(0, 0, 0)" stroke="rgb(66, 66, 66)" stroke-width="1px" opacity="0.25"></line><line x1="0" y1="324.4444444444444" x2="1039.21875" y2="324.4444444444444" fill="rgb(0, 0, 0)" stroke="rgb(66, 66, 66)" stroke-width="1px" opacity="0.25"></line><line x1="0" y1="283.8888888888889" x2="1039.21875" y2="283.8888888888889" fill="rgb(0, 0, 0)" stroke="rgb(66, 66, 66)" stroke-width="1px" opacity="0.25"></line><line x1="0" y1="243.33333333333337" x2="1039.21875" y2="243.33333333333337" fill="rgb(0, 0, 0)" stroke="rgb(66, 66, 66)" stroke-width="1px" opacity="0.25"></line><line x1="0" y1="202.7777777777778" x2="1039.21875" y2="202.7777777777778" fill="rgb(0, 0, 0)" stroke="rgb(66, 66, 66)" stroke-width="1px" opacity="0.25"></line><line x1="0" y1="162.2222222222222" x2="1039.21875" y2="162.2222222222222" fill="rgb(0, 0, 0)" stroke="rgb(66, 66, 66)" stroke-width="1px" opacity="0.25"></line><line x1="0" y1="121.66666666666669" x2="1039.21875" y2="121.66666666666669" fill="rgb(0, 0, 0)" stroke="rgb(66, 66, 66)" stroke-width="1px" opacity="0.25"></line><line x1="0" y1="81.1111111111111" x2="1039.21875" y2="81.1111111111111" fill="rgb(0, 0, 0)" stroke="rgb(66, 66, 66)" stroke-width="1px" opacity="0.25"></line><line x1="0" y1="40.55555555555557" x2="1039.21875" y2="40.55555555555557" fill="rgb(0, 0, 0)" stroke="rgb(66, 66, 66)" stroke-width="1px" opacity="0.25"></line><line x1="0" y1="0" x2="1039.21875" y2="0" fill="rgb(0, 0, 0)" stroke="rgb(66, 66, 66)" stroke-width="1px" opacity="0.25"></line></g></g></g><g><g><line x1="0" y1="1865.5555555555554" x2="1039.21875" y2="1865.5555555555554" fill="rgb(0, 0, 0)" stroke="rgb(153, 153, 153)" stroke-width="1.5px"></line></g></g><g><g><line x1="-2067041204.497768" y1="0" x2="-2067041204.497768" y2="365" fill="rgb(0, 0, 0)" stroke="rgb(153, 153, 153)" stroke-width="1.5px"></line></g></g><g><g><g><g><g><path stroke="rgb(255, 112, 67)" stroke-width="2px" d="M94.90788950892858,434.5229139701863L106.39249386160715,320.37595707739194L117.69770926339287,248.59182760594075L129.15633314732142,201.33242938632645L140.35638950892854,169.07627948534463L151.8867689732143,146.6390236745059L163.47776953125,130.92861737464753L174.74339564732145,118.34134477486174L186.26140345982145,108.63579347800379L197.5171322544643,101.42698870028343L209.0611205357143,95.34920947627874L220.68676171875,91.21944185786454L232.29755691964286,87.56229577601741L243.62998995535713,84.01523799314089L255.01438392857142,79.27423053432726L266.3802204241071,76.25423519641896L277.88956808035715,73.30771945470786L289.2850965401786,70.6376367449629L300.7486690848214,69.32357084029422L311.91037332589286,66.9065079063918L323.3195106026786,65.3151387467986L334.9055625,63.37621039761107L346.3641863839286,62.42074466363263L357.5432109375,60.73292032564023L368.86203515625,60.30227385883638L380.0373482142857,59.687645402125646L391.29431417410717,58.398384299758845L402.4572555803571,58.3712907112767L413.6486517857143,56.7350855617547L424.8685027901785,55.92572774332691L436.0512388392857,55.054183891575015L447.32923660714283,53.65121305633508L458.6035228794643,54.30469734879207L469.68357421875004,52.61353763309568L480.95043749999996,51.36527905567977L492.0997700892857,50.574146383248255L503.46313225446426,51.02582737523495L514.61246484375,49.98955660573657L526.0698515624999,49.47733249810202L537.1437170758928,49.094415914918415L548.2497488839285,48.844133853221905L559.515375,49.45918636858078L570.7550206473214,48.73798642257146L581.9637371651786,48.6624460014211L593.1637935267858,47.704490755512126L604.3143632812499,47.687003789297684L615.5750407366071,47.0570502645905L626.6699380580357,46.22244278869157L638.0840239955357,46.5420603162778L649.22593359375,46.67897904698673L660.4779508928572,46.20431112501855L671.7225452008928,45.522725619882394L683.0562154017856,45.45350960590838L694.157298549107,47.33108626521236L705.3486947544642,45.850406091738236L716.6143208705357,45.347368146210165L727.7945825892857,44.36298195801179L738.9377293526786,44.45322582751963L750.2751110491072,44.21419891787583L761.4627957589286,43.733706507652315L772.5713018973214,43.76176280815443L783.9111579241071,44.58231352056835L795.0877081473213,44.838490250883005L806.1553878348215,43.915100396114894L817.5298844866071,44.13311277981894L828.6965373883928,43.27205501101336L839.8000948660714,43.62354340481833L851.0347918526786,44.270996409719956L862.1729899553571,44.20612210872431L873.4262444196428,43.58624327041259L885.0543599330357,42.98196063873526L897.0437276785714,42.660677181215725L908.6223565848214,43.469756485074136L919.9609754464285,42.81421631724637L931.1362885044643,42.86262860337015L942.3041785714286,42.536289081077854L953.6069196428572,43.460249422847745" style="fill: none;" fill="none"></path></g></g></g></g><g opacity="0.2"><g><g><g><path stroke="rgb(255, 112, 67)" stroke-width="2px" d="M83.47400892857142,373.64287058512366L94.90788950892858,255.8859634399414L106.39249386160715,204.1919559902615L117.69770926339287,172.69079208374023L129.15633314732142,150.38433922661673L140.35638950892854,133.9525816175673L151.8867689732143,122.0795800950792L163.47776953125,113.68547863430446L174.74339564732145,104.50639300876195L186.26140345982145,97.96026865641278L197.5171322544643,93.49464628431534L209.0611205357143,88.66004731920029L220.68676171875,86.67376200358075L232.29755691964286,83.53661007351344L243.62998995535713,80.11061986287433L255.01438392857142,74.05522664388019L266.3802204241071,72.92973200480145L277.88956808035715,70.064091152615L289.2850965401786,67.69830915662979L300.7486690848214,67.87699593438042L311.91037332589286,64.24570931328667L323.3195106026786,63.56329600016277L334.9055625,61.24176025390625L346.3641863839286,61.36892954508465L357.5432109375,58.87489530775284L368.86203515625,59.828200870090065L380.0373482142857,59.011037614610444L391.29431417410717,56.97911368476021L402.4572555803571,58.34146499633789L413.6486517857143,54.93388493855793L424.8685027901785,55.03475401136612L436.0512388392857,54.09475326538086L447.32923660714283,52.10676617092556L458.6035228794643,55.02407921685112L469.68357421875004,50.751840803358306L480.95043749999996,49.99114566379124L492.0997700892857,49.7032356262207L503.46313225446426,51.52305603027344L514.61246484375,48.84878794352215L526.0698515624999,48.91345553927952L537.1437170758928,48.67288589477539L548.2497488839285,48.568613264295806L559.515375,50.136260986328125L570.7550206473214,47.94406043158638L581.9637371651786,48.57928805881077L593.1637935267858,46.6499349806044L604.3143632812499,47.667753431532134L615.5750407366071,46.36357201470268L626.6699380580357,45.30367321438259L638.0840239955357,46.89390818277996L649.22593359375,46.82970470852322L660.4779508928572,45.681777530246315L671.7225452008928,44.772408803304025L683.0562154017856,45.37731382581924L694.157298549107,49.397998385959205L705.3486947544642,44.22041363186306L716.6143208705357,44.793603685167085L727.7945825892857,43.27932993570965L738.9377293526786,44.55256991916233L750.2751110491072,43.95106845431858L761.4627957589286,43.204761081271705L772.5713018973214,43.79264831542969L783.9111579241071,45.48560884263779L795.0877081473213,45.120499928792306L806.1553878348215,42.89859559800888L817.5298844866071,44.37310960557724L828.6965373883928,42.3241678873698L839.8000948660714,44.0104760064019L851.0347918526786,44.983738793267136L862.1729899553571,44.13470586140949L873.4262444196428,42.90385564168293L885.0543599330357,42.316741943359375L897.0437276785714,42.3069953918457L908.6223565848214,44.3604236178928L919.9609754464285,42.09257125854492L931.1362885044643,42.91592280069988L942.3041785714286,42.1770413716634L953.6069196428572,44.47738223605686" style="fill: none;" fill="none"></path></g></g></g></g></g><g><g opacity="0.703923"><span fill="rgb(0, 0, 0)" stroke="none" stroke-width="1px">Alt + Scroll to Zoom</span></g></g></g><g transform="translate(30, 365)" clip-path="url(#clip_1)"><clipPath id="clip_1"><rect width="1039" height="35"></rect></clipPath><g><g visibility="inherit"><g><g transform="translate(37.114955357142854,0)" style="visibility: inherit;"><text transform="translate(0,14)" style="text-anchor: middle; font-family: Roboto, sans-serif; font-size: 12px; font-weight: 200;" fill="rgb(33, 33, 33)" stroke="none" stroke-width="1px">08:53 PM</text></g><g transform="translate(111.34486607142857,0)" style="visibility: inherit;"><text transform="translate(0,14)" style="text-anchor: middle; font-family: Roboto, sans-serif; font-size: 12px; font-weight: 200;" fill="rgb(33, 33, 33)" stroke="none" stroke-width="1px">08:54 PM</text></g><g transform="translate(185.57477678571428,0)" style="visibility: inherit;"><text transform="translate(0,14)" style="text-anchor: middle; font-family: Roboto, sans-serif; font-size: 12px; font-weight: 200;" fill="rgb(33, 33, 33)" stroke="none" stroke-width="1px">08:55 PM</text></g><g transform="translate(259.8046875,0)" style="visibility: inherit;"><text transform="translate(0,14)" style="text-anchor: middle; font-family: Roboto, sans-serif; font-size: 12px; font-weight: 200;" fill="rgb(33, 33, 33)" stroke="none" stroke-width="1px">08:56 PM</text></g><g transform="translate(334.0345982142857,0)" style="visibility: inherit;"><text transform="translate(0,14)" style="text-anchor: middle; font-family: Roboto, sans-serif; font-size: 12px; font-weight: 200;" fill="rgb(33, 33, 33)" stroke="none" stroke-width="1px">08:57 PM</text></g><g transform="translate(408.26450892857144,0)" style="visibility: inherit;"><text transform="translate(0,14)" style="text-anchor: middle; font-family: Roboto, sans-serif; font-size: 12px; font-weight: 200;" fill="rgb(33, 33, 33)" stroke="none" stroke-width="1px">08:58 PM</text></g><g transform="translate(482.49441964285717,0)" style="visibility: inherit;"><text transform="translate(0,14)" style="text-anchor: middle; font-family: Roboto, sans-serif; font-size: 12px; font-weight: 200;" fill="rgb(33, 33, 33)" stroke="none" stroke-width="1px">08:59 PM</text></g><g transform="translate(556.7243303571429,0)" style="visibility: inherit;"><text transform="translate(0,14)" style="text-anchor: middle; font-family: Roboto, sans-serif; font-size: 12px; font-weight: 200;" fill="rgb(33, 33, 33)" stroke="none" stroke-width="1px">09:00 PM</text></g><g transform="translate(630.9542410714286,0)" style="visibility: inherit;"><text transform="translate(0,14)" style="text-anchor: middle; font-family: Roboto, sans-serif; font-size: 12px; font-weight: 200;" fill="rgb(33, 33, 33)" stroke="none" stroke-width="1px">09:01 PM</text></g><g transform="translate(705.1841517857143,0)" style="visibility: inherit;"><text transform="translate(0,14)" style="text-anchor: middle; font-family: Roboto, sans-serif; font-size: 12px; font-weight: 200;" fill="rgb(33, 33, 33)" stroke="none" stroke-width="1px">09:02 PM</text></g><g transform="translate(779.4140625,0)" style="visibility: inherit;"><text transform="translate(0,14)" style="text-anchor: middle; font-family: Roboto, sans-serif; font-size: 12px; font-weight: 200;" fill="rgb(33, 33, 33)" stroke="none" stroke-width="1px">09:03 PM</text></g><g transform="translate(853.6439732142857,0)" style="visibility: inherit;"><text transform="translate(0,14)" style="text-anchor: middle; font-family: Roboto, sans-serif; font-size: 12px; font-weight: 200;" fill="rgb(33, 33, 33)" stroke="none" stroke-width="1px">09:04 PM</text></g><g transform="translate(927.8738839285714,0)" style="visibility: inherit;"><text transform="translate(0,14)" style="text-anchor: middle; font-family: Roboto, sans-serif; font-size: 12px; font-weight: 200;" fill="rgb(33, 33, 33)" stroke="none" stroke-width="1px">09:05 PM</text></g><g transform="translate(1002.1037946428571,0)" style="visibility: inherit;"><text transform="translate(0,14)" style="text-anchor: middle; font-family: Roboto, sans-serif; font-size: 12px; font-weight: 200;" fill="rgb(33, 33, 33)" stroke="none" stroke-width="1px">09:06 PM</text></g></g><g><line x1="0" y1="0" x2="0" y2="17" fill="rgb(0, 0, 0)" stroke="rgb(204, 204, 204)" stroke-width="1px"></line><line x1="74.22991071428571" y1="0" x2="74.22991071428571" y2="17" fill="rgb(0, 0, 0)" stroke="rgb(204, 204, 204)" stroke-width="1px"></line><line x1="148.45982142857142" y1="0" x2="148.45982142857142" y2="17" fill="rgb(0, 0, 0)" stroke="rgb(204, 204, 204)" stroke-width="1px"></line><line x1="222.68973214285714" y1="0" x2="222.68973214285714" y2="17" fill="rgb(0, 0, 0)" stroke="rgb(204, 204, 204)" stroke-width="1px"></line><line x1="296.91964285714283" y1="0" x2="296.91964285714283" y2="17" fill="rgb(0, 0, 0)" stroke="rgb(204, 204, 204)" stroke-width="1px"></line><line x1="371.14955357142856" y1="0" x2="371.14955357142856" y2="17" fill="rgb(0, 0, 0)" stroke="rgb(204, 204, 204)" stroke-width="1px"></line><line x1="445.3794642857143" y1="0" x2="445.3794642857143" y2="17" fill="rgb(0, 0, 0)" stroke="rgb(204, 204, 204)" stroke-width="1px"></line><line x1="519.609375" y1="0" x2="519.609375" y2="17" fill="rgb(0, 0, 0)" stroke="rgb(204, 204, 204)" stroke-width="1px"></line><line x1="593.8392857142857" y1="0" x2="593.8392857142857" y2="17" fill="rgb(0, 0, 0)" stroke="rgb(204, 204, 204)" stroke-width="1px"></line><line x1="668.0691964285714" y1="0" x2="668.0691964285714" y2="17" fill="rgb(0, 0, 0)" stroke="rgb(204, 204, 204)" stroke-width="1px"></line><line x1="742.2991071428571" y1="0" x2="742.2991071428571" y2="17" fill="rgb(0, 0, 0)" stroke="rgb(204, 204, 204)" stroke-width="1px"></line><line x1="816.5290178571429" y1="0" x2="816.5290178571429" y2="17" fill="rgb(0, 0, 0)" stroke="rgb(204, 204, 204)" stroke-width="1px"></line><line x1="890.7589285714286" y1="0" x2="890.7589285714286" y2="17" fill="rgb(0, 0, 0)" stroke="rgb(204, 204, 204)" stroke-width="1px"></line><line x1="964.9888392857143" y1="0" x2="964.9888392857143" y2="17" fill="rgb(0, 0, 0)" stroke="rgb(204, 204, 204)" stroke-width="1px"></line><line x1="1039.21875" y1="0" x2="1039.21875" y2="17" fill="rgb(0, 0, 0)" stroke="rgb(204, 204, 204)" stroke-width="1px"></line></g><line x1="0" y1="0" x2="1039.21875" y2="0" style="visibility: inherit;" fill="rgb(0, 0, 0)" stroke="rgb(204, 204, 204)" stroke-width="1px"></line></g><g visibility="inherit"><g><g transform="translate(519.609375,0)" style="visibility: inherit;"><text transform="translate(0,31)" style="text-anchor: middle; font-family: Roboto, sans-serif; font-size: 12px; font-weight: 200;" fill="rgb(33, 33, 33)" stroke="none" stroke-width="1px">December 11, 2022</text></g></g><g><line x1="0" y1="17" x2="0" y2="34" fill="rgb(0, 0, 0)" stroke="rgb(204, 204, 204)" stroke-width="1px"></line><line x1="1039.21875" y1="17" x2="1039.21875" y2="34" fill="rgb(0, 0, 0)" stroke="rgb(204, 204, 204)" stroke-width="1px"></line></g><line x1="0" y1="17" x2="1039.21875" y2="17" style="visibility: inherit;" fill="rgb(0, 0, 0)" stroke="rgb(204, 204, 204)" stroke-width="1px"></line></g></g></g></g></g></svg>