<svg viewBox="0 0 1070 400" xmlns="http://www.w3.org/2000/svg"><g><g><g><g><g><line x1="41.171875" y1="365" x2="36.171875" y2="365" style="visibility: inherit;" fill="rgb(0, 0, 0)" stroke="rgb(204, 204, 204)" stroke-width="1px"></line><line x1="41.171875" y1="324.4444444444444" x2="36.171875" y2="324.4444444444444" style="visibility: inherit;" fill="rgb(0, 0, 0)" stroke="rgb(204, 204, 204)" stroke-width="1px"></line><line x1="41.171875" y1="283.8888888888889" x2="36.171875" y2="283.8888888888889" style="visibility: inherit;" fill="rgb(0, 0, 0)" stroke="rgb(204, 204, 204)" stroke-width="1px"></line><line x1="41.171875" y1="243.33333333333337" x2="36.171875" y2="243.33333333333337" style="visibility: inherit;" fill="rgb(0, 0, 0)" stroke="rgb(204, 204, 204)" stroke-width="1px"></line><line x1="41.171875" y1="202.7777777777778" x2="36.171875" y2="202.7777777777778" style="visibility: inherit;" fill="rgb(0, 0, 0)" stroke="rgb(204, 204, 204)" stroke-width="1px"></line><line x1="41.171875" y1="162.2222222222222" x2="36.171875" y2="162.2222222222222" style="visibility: inherit;" fill="rgb(0, 0, 0)" stroke="rgb(204, 204, 204)" stroke-width="1px"></line><line x1="41.171875" y1="121.66666666666669" x2="36.171875" y2="121.66666666666669" style="visibility: inherit;" fill="rgb(0, 0, 0)" stroke="rgb(204, 204, 204)" stroke-width="1px"></line><line x1="41.171875" y1="81.1111111111111" x2="36.171875" y2="81.1111111111111" style="visibility: inherit;" fill="rgb(0, 0, 0)" stroke="rgb(204, 204, 204)" stroke-width="1px"></line><line x1="41.171875" y1="40.55555555555557" x2="36.171875" y2="40.55555555555557" style="visibility: inherit;" fill="rgb(0, 0, 0)" stroke="rgb(204, 204, 204)" stroke-width="1px"></line><line x1="41.171875" y1="0" x2="36.171875" y2="0" style="visibility: inherit;" fill="rgb(0, 0, 0)" stroke="rgb(204, 204, 204)" stroke-width="1px"></line></g><g transform="translate(31.171875, 0)"><text x="0" y="365" dx="0em" dy="0.3em" style="text-anchor: end; visibility: hidden; font-family: Roboto, sans-serif; font-size: 12px; font-weight: 200;" fill="rgb(33, 33, 33)" stroke="none" stroke-width="1px">220</text><text x="0" y="324.4444444444444" dx="0em" dy="0.3em" style="text-anchor: end; visibility: inherit; font-family: Roboto, sans-serif; font-size: 12px; font-weight: 200;" fill="rgb(33, 33, 33)" stroke="none" stroke-width="1px">230</text><text x="0" y="283.8888888888889" dx="0em" dy="0.3em" style="text-anchor: end; visibility: inherit; font-family: Roboto, sans-serif; font-size: 12px; font-weight: 200;" fill="rgb(33, 33, 33)" stroke="none" stroke-width="1px">240</text><text x="0" y="243.33333333333337" dx="0em" dy="0.3em" style="text-anchor: end; visibility: inherit; font-family: Roboto, sans-serif; font-size: 12px; font-weight: 200;" fill="rgb(33, 33, 33)" stroke="none" stroke-width="1px">250</text><text x="0" y="202.7777777777778" dx="0em" dy="0.3em" style="text-anchor: end; visibility: inherit; font-family: Roboto, sans-serif; font-size: 12px; font-weight: 200;" fill="rgb(33, 33, 33)" stroke="none" stroke-width="1px">260</text><text x="0" y="162.2222222222222" dx="0em" dy="0.3em" style="text-anchor: end; visibility: inherit; font-family: Roboto, sans-serif; font-size: 12px; font-weight: 200;" fill="rgb(33, 33, 33)" stroke="none" stroke-width="1px">270</text><text x="0" y="121.66666666666669" dx="0em" dy="0.3em" style="text-anchor: end; visibility: inherit; font-family: Roboto, sans-serif; font-size: 12px; font-weight: 200;" fill="rgb(33, 33, 33)" stroke="none" stroke-width="1px">280</text><text x="0" y="81.1111111111111" dx="0em" dy="0.3em" style="text-anchor: end; visibility: inherit; font-family: Roboto, sans-serif; font-size: 12px; font-weight: 200;" fill="rgb(33, 33, 33)" stroke="none" stroke-width="1px">290</text><text x="0" y="40.55555555555557" dx="0em" dy="0.3em" style="text-anchor: end; visibility: inherit; font-family: Roboto, sans-serif; font-size: 12px; font-weight: 200;" fill="rgb(33, 33, 33)" stroke="none" stroke-width="1px">300</text><text x="0" y="0" dx="0em" dy="0.3em" style="text-anchor: end; visibility: hidden; font-family: Roboto, sans-serif; font-size: 12px; font-weight: 200;" fill="rgb(33, 33, 33)" stroke="none" stroke-width="1px">310</text></g><line x1="41.171875" y1="0" x2="41.171875" y2="365" fill="rgb(0, 0, 0)" stroke="rgb(204, 204, 204)" stroke-width="1px"></line></g></g><g transform="translate(41, 0)" clip-path="url(#clip_0)"><clipPath id="clip_0"><rect width="1028" height="365"></rect></clipPath><g><g><g><line x1="0" y1="0" x2="0" y2="365" fill="rgb(0, 0, 0)" stroke="rgb(66, 66, 66)" stroke-width="1px" opacity="0.25"></line><line x1="73.48772321428571" y1="0" x2="73.48772321428571" y2="365" fill="rgb(0, 0, 0)" stroke="rgb(66, 66, 66)" stroke-width="1px" opacity="0.25"></line><line x1="146.97544642857142" y1="0" x2="146.97544642857142" y2="365" fill="rgb(0, 0, 0)" stroke="rgb(66, 66, 66)" stroke-width="1px" opacity="0.25"></line><line x1="220.46316964285714" y1="0" x2="220.46316964285714" y2="365" fill="rgb(0, 0, 0)" stroke="rgb(66, 66, 66)" stroke-width="1px" opacity="0.25"></line><line x1="293.95089285714283" y1="0" x2="293.95089285714283" y2="365" fill="rgb(0, 0, 0)" stroke="rgb(66, 66, 66)" stroke-width="1px" opacity="0.25"></line><line x1="367.43861607142856" y1="0" x2="367.43861607142856" y2="365" fill="rgb(0, 0, 0)" stroke="rgb(66, 66, 66)" stroke-width="1px" opacity="0.25"></line><line x1="440.9263392857143" y1="0" x2="440.9263392857143" y2="365" fill="rgb(0, 0, 0)" stroke="rgb(66, 66, 66)" stroke-width="1px" opacity="0.25"></line><line x1="514.4140625" y1="0" x2="514.4140625" y2="365" fill="rgb(0, 0, 0)" stroke="rgb(66, 66, 66)" stroke-width="1px" opacity="0.25"></line><line x1="587.9017857142857" y1="0" x2="587.9017857142857" y2="365" fill="rgb(0, 0, 0)" stroke="rgb(66, 66, 66)" stroke-width="1px" opacity="0.25"></line><line x1="661.3895089285714" y1="0" x2="661.3895089285714" y2="365" fill="rgb(0, 0, 0)" stroke="rgb(66, 66, 66)" stroke-width="1px" opacity="0.25"></line><line x1="734.8772321428571" y1="0" x2="734.8772321428571" y2="365" fill="rgb(0, 0, 0)" stroke="rgb(66, 66, 66)" stroke-width="1px" opacity="0.25"></line><line x1="808.3649553571429" y1="0" x2="808.3649553571429" y2="365" fill="rgb(0, 0, 0)" stroke="rgb(66, 66, 66)" stroke-width="1px" opacity="0.25"></line><line x1="881.8526785714286" y1="0" x2="881.8526785714286" y2="365" fill="rgb(0, 0, 0)" stroke="rgb(66, 66, 66)" stroke-width="1px" opacity="0.25"></line><line x1="955.3404017857143" y1="0" x2="955.3404017857143" y2="365" fill="rgb(0, 0, 0)" stroke="rgb(66, 66, 66)" stroke-width="1px" opacity="0.25"></line><line x1="1028.828125" y1="0" x2="1028.828125" y2="365" fill="rgb(0, 0, 0)" stroke="rgb(66, 66, 66)" stroke-width="1px" opacity="0.25"></line></g><g><line x1="0" y1="365" x2="1028.828125" y2="365" fill="rgb(0, 0, 0)" stroke="rgb(66, 66, 66)" stroke-width="1px" opacity="0.25"></line><line x1="0" y1="324.4444444444444" x2="1028.828125" y2="324.4444444444444" fill="rgb(0, 0, 0)" stroke="rgb(66, 66, 66)" stroke-width="1px" opacity="0.25"></line><line x1="0" y1="283.8888888888889" x2="1028.828125" y2="283.8888888888889" fill="rgb(0, 0, 0)" stroke="rgb(66, 66, 66)" stroke-width="1px" opacity="0.25"></line><line x1="0" y1="243.33333333333337" x2="1028.828125" y2="243.33333333333337" fill="rgb(0, 0, 0)" stroke="rgb(66, 66, 66)" stroke-width="1px" opacity="0.25"></line><line x1="0" y1="202.7777777777778" x2="1028.828125" y2="202.7777777777778" fill="rgb(0, 0, 0)" stroke="rgb(66, 66, 66)" stroke-width="1px" opacity="0.25"></line><line x1="0" y1="162.2222222222222" x2="1028.828125" y2="162.2222222222222" fill="rgb(0, 0, 0)" stroke="rgb(66, 66, 66)" stroke-width="1px" opacity="0.25"></line><line x1="0" y1="121.66666666666669" x2="1028.828125" y2="121.66666666666669" fill="rgb(0, 0, 0)" stroke="rgb(66, 66, 66)" stroke-width="1px" opacity="0.25"></line><line x1="0" y1="81.1111111111111" x2="1028.828125" y2="81.1111111111111" fill="rgb(0, 0, 0)" stroke="rgb(66, 66, 66)" stroke-width="1px" opacity="0.25"></line><line x1="0" y1="40.55555555555557" x2="1028.828125" y2="40.55555555555557" fill="rgb(0, 0, 0)" stroke="rgb(66, 66, 66)" stroke-width="1px" opacity="0.25"></line><line x1="0" y1="0" x2="1028.828125" y2="0" fill="rgb(0, 0, 0)" stroke="rgb(66, 66, 66)" stroke-width="1px" opacity="0.25"></line></g></g></g><g><g><line x1="0" y1="1257.2222222222224" x2="1028.828125" y2="1257.2222222222224" fill="rgb(0, 0, 0)" stroke="rgb(153, 153, 153)" stroke-width="1.5px"></line></g></g><g><g><line x1="-2046373900.3180804" y1="0" x2="-2046373900.3180804" y2="365" fill="rgb(0, 0, 0)" stroke="rgb(153, 153, 153)" stroke-width="1.5px"></line></g></g><g><g><g><g><g><path stroke="rgb(255, 112, 67)" stroke-width="2px" d="M93.95895331101191,-80.00048831376519L105.3275040922619,15.950580362158753L116.52090913318453,75.90137127345423L127.86496400669643,115.09580389682455L138.95181184895833,142.74270089789198L150.36812965029762,162.64613834007736L161.84323763020834,177.5738152716273L172.99622442336312,189.20402064874477L184.39784468005953,199.06459911420094L195.54225790550595,207.2110016190348L206.9708236607143,214.41213470272427L218.48022591145835,220.44293302422665L229.97493061755952,225.7124376261054L241.19405636160712,230.69047849035047L252.46339871651787,235.71602327155335L263.71559393601194,239.78110381954036L275.1110902157738,243.62746458972353L286.3926805245536,247.4508301552553L297.7416345796131,250.220633799294L308.79173856026785,253.521921285056L320.0868016183036,256.4601493751734L331.5570104166666,258.90868247304167L342.9010652901786,261.56260733703624L353.96831640625004,263.64548563449057L365.17396940104163,266.00282540680195L376.23754613095235,267.83179149377185L387.38195935639885,269.9613205462146L398.4332881324405,271.50489843589804L409.5115624069941,273.3253785125897L420.62045656622024,275.5470184698502L431.69138206845236,276.96669072833174L442.8566168154762,278.5131049187932L454.0181771763393,279.93016568022284L464.98744466145837,281.50864428394976L476.14165625,283.0183860840432L487.1795122767857,284.3356971403561L498.42925790550595,285.16276293365866L509.4671139322916,286.25952949341354L520.8099440104166,287.98347055280453L531.7730875186012,288.9811934755407L542.7680757068451,289.97312043814986L553.9210625,290.88418691948664L565.0483285900298,291.909030061127L576.1449747953869,293.01237362553854L587.2318226376489,293.60799320632304L598.2709034598215,294.5552039559283L609.4202158668154,295.66703061910863L620.4041808965774,296.49190540224174L631.7041431361607,297.4599488774164L642.734650390625,298.0195768612616L653.8741644345239,298.9985338422498L665.0063297061012,299.6525732555557L676.2266802455357,300.1457818616598L687.2167692522321,300.27744349460914L698.2962683221725,301.0524414602399L709.4492551153273,302.17659526822666L720.5177310267857,302.62405569594137L731.5494630766369,303.3403996650606L742.7734880022322,303.8528532671296L753.8493126860119,304.53285323507697L764.8467504650298,305.1470920957772L776.0732249813988,305.478231975825L787.1380265066964,305.7898106912915L798.0938212425594,306.36534753726283L809.3558148251487,306.9373960822362L820.4108179873512,307.8889572997502L831.4033565848214,308.2806786661662L842.5257234933035,308.82371541870555L853.5525563616071,308.78878424837956L864.6932952008927,309.642561892006L876.2039222470238,310.3470060236691L888.0746391369047,310.6032289632059L899.5374991629465,310.83790612127825L910.7627488839286,311.0613816585968L921.8251008184524,311.74186297388655L932.8825535714286,312.0113036116466L944.0722842261905,312.1323129782993" style="fill: none;" fill="none"></path></g></g></g></g><g opacity="0.2"><g><g><g><path stroke="rgb(255, 112, 67)" stroke-width="2px" d="M82.63939434523809,-4.361133151584198L93.95895331101191,74.4879116482205L105.3275040922619,113.61397298177084L116.52090913318453,139.29041205512152L127.86496400669643,157.34944152832028L138.95181184895833,172.8473866780599L150.36812965029762,184.43210686577692L161.84323763020834,193.95786031087238L172.99622442336312,201.98703850640192L184.39784468005953,209.91064453125L195.54225790550595,216.175047132704L206.9708236607143,222.33765241834854L218.48022591145835,227.08109792073566L229.97493061755952,231.51296318901908L241.19405636160712,236.17032962375217L252.46339871651787,241.2482520209418L263.71559393601194,244.25606875949438L275.1110902157738,247.86167399088544L286.3926805245536,251.65973493787976L297.7416345796131,253.2697414822049L308.79173856026785,257.1561092800564L320.0868016183036,259.69466824001734L331.5570104166666,261.6041259765625L342.9010652901786,264.48415459526905L353.96831640625004,265.9384019639757L365.17396940104163,268.59788004557294L376.23754613095235,269.8451911078559L387.38195935639885,272.3055920071072L398.4332881324405,273.2041312323676L409.5115624069941,275.32943640814887L420.62045656622024,277.9926893446181L431.69138206845236,278.5295232137044L442.8566168154762,280.215460035536L454.0181771763393,281.490123324924L464.98744466145837,283.2462972005208L476.14165625,284.6803707546658L487.1795122767857,285.7858462863498L498.42925790550595,286.0732303195529L509.4671139322916,287.4668943617079L520.8099440104166,289.8812544080946L531.7730875186012,290.07952711317273L542.7680757068451,291.06507364908856L553.9210625,291.8871256510417L565.0483285900298,293.03721872965497L576.1449747953869,294.2269787258572L587.2318226376489,294.263675265842L598.2709034598215,295.5979317559136L609.4202158668154,296.8909742567274L620.4041808965774,297.3999608357748L631.7041431361607,298.5256101820204L642.734650390625,298.6356379191081L653.8741644345239,300.07620917426215L665.0063297061012,300.37256622314453L676.2266802455357,300.68872578938806L687.2167692522321,300.42238193088104L698.2962683221725,301.90559048122833L709.4492551153273,303.4141091240777L720.5177310267857,303.11663818359375L731.5494630766369,304.1289800008138L742.7734880022322,304.4169828626845L753.8493126860119,305.2814246283637L764.8467504650298,305.82327100965716L776.0732249813988,305.8427641126845L787.1380265066964,306.132809109158L798.0938212425594,306.9989217122396L809.3558148251487,307.56713019476996L820.4108179873512,308.93647427029083L831.4033565848214,308.71190134684247L842.5257234933035,309.42151217990454L853.5525563616071,308.7503306070964L864.6932952008927,310.58243476019965L876.2039222470238,311.12248653835724L888.0746391369047,310.8852895100911L899.5374991629465,311.0962482028537L910.7627488839286,311.3073925442166L921.8251008184524,312.49096425374347L932.8825535714286,312.3079147338867L944.0722842261905,312.2655249701606" style="fill: none;" fill="none"></path></g></g></g></g></g></g><g transform="translate(41, 365)" clip-path="url(#clip_1)"><clipPath id="clip_1"><rect width="1028" height="35"></rect></clipPath><g><g visibility="inherit"><g><g transform="translate(36.743861607142854,0)" style="visibility: inherit;"><text transform="translate(0,14)" style="text-anchor: middle; font-family: Roboto, sans-serif; font-size: 12px; font-weight: 200;" fill="rgb(33, 33, 33)" stroke="none" stroke-width="1px">08:53 PM</text></g><g transform="translate(110.23158482142857,0)" style="visibility: inherit;"><text transform="translate(0,14)" style="text-anchor: middle; font-family: Roboto, sans-serif; font-size: 12px; font-weight: 200;" fill="rgb(33, 33, 33)" stroke="none" stroke-width="1px">08:54 PM</text></g><g transform="translate(183.71930803571428,0)" style="visibility: inherit;"><text transform="translate(0,14)" style="text-anchor: middle; font-family: Roboto, sans-serif; font-size: 12px; font-weight: 200;" fill="rgb(33, 33, 33)" stroke="none" stroke-width="1px">08:55 PM</text></g><g transform="translate(257.20703125,0)" style="visibility: inherit;"><text transform="translate(0,14)" style="text-anchor: middle; font-family: Roboto, sans-serif; font-size: 12px; font-weight: 200;" fill="rgb(33, 33, 33)" stroke="none" stroke-width="1px">08:56 PM</text></g><g transform="translate(330.6947544642857,0)" style="visibility: inherit;"><text transform="translate(0,14)" style="text-anchor: middle; font-family: Roboto, sans-serif; font-size: 12px; font-weight: 200;" fill="rgb(33, 33, 33)" stroke="none" stroke-width="1px">08:57 PM</text></g><g transform="translate(404.18247767857144,0)" style="visibility: inherit;"><text transform="translate(0,14)" style="text-anchor: middle; font-family: Roboto, sans-serif; font-size: 12px; font-weight: 200;" fill="rgb(33, 33, 33)" stroke="none" stroke-width="1px">08:58 PM</text></g><g transform="translate(477.67020089285717,0)" style="visibility: inherit;"><text transform="translate(0,14)" style="text-anchor: middle; font-family: Roboto, sans-serif; font-size: 12px; font-weight: 200;" fill="rgb(33, 33, 33)" stroke="none" stroke-width="1px">08:59 PM</text></g><g transform="translate(551.1579241071429,0)" style="visibility: inherit;"><text transform="translate(0,14)" style="text-anchor: middle; font-family: Roboto, sans-serif; font-size: 12px; font-weight: 200;" fill="rgb(33, 33, 33)" stroke="none" stroke-width="1px">09:00 PM</text></g><g transform="translate(624.6456473214286,0)" style="visibility: inherit;"><text transform="translate(0,14)" style="text-anchor: middle; font-family: Roboto, sans-serif; font-size: 12px; font-weight: 200;" fill="rgb(33, 33, 33)" stroke="none" stroke-width="1px">09:01 PM</text></g><g transform="translate(698.1333705357143,0)" style="visibility: inherit;"><text transform="translate(0,14)" style="text-anchor: middle; font-family: Roboto, sans-serif; font-size: 12px; font-weight: 200;" fill="rgb(33, 33, 33)" stroke="none" stroke-width="1px">09:02 PM</text></g><g transform="translate(771.62109375,0)" style="visibility: inherit;"><text transform="translate(0,14)" style="text-anchor: middle; font-family: Roboto, sans-serif; font-size: 12px; font-weight: 200;" fill="rgb(33, 33, 33)" stroke="none" stroke-width="1px">09:03 PM</text></g><g transform="translate(845.1088169642857,0)" style="visibility: inherit;"><text transform="translate(0,14)" style="text-anchor: middle; font-family: Roboto, sans-serif; font-size: 12px; font-weight: 200;" fill="rgb(33, 33, 33)" stroke="none" stroke-width="1px">09:04 PM</text></g><g transform="translate(918.5965401785714,0)" style="visibility: inherit;"><text transform="translate(0,14)" style="text-anchor: middle; font-family: Roboto, sans-serif; font-size: 12px; font-weight: 200;" fill="rgb(33, 33, 33)" stroke="none" stroke-width="1px">09:05 PM</text></g><g transform="translate(992.0842633928571,0)" style="visibility: inherit;"><text transform="translate(0,14)" style="text-anchor: middle; font-family: Roboto, sans-serif; font-size: 12px; font-weight: 200;" fill="rgb(33, 33, 33)" stroke="none" stroke-width="1px">09:06 PM</text></g></g><g><line x1="0" y1="0" x2="0" y2="17" fill="rgb(0, 0, 0)" stroke="rgb(204, 204, 204)" stroke-width="1px"></line><line x1="73.48772321428571" y1="0" x2="73.48772321428571" y2="17" fill="rgb(0, 0, 0)" stroke="rgb(204, 204, 204)" stroke-width="1px"></line><line x1="146.97544642857142" y1="0" x2="146.97544642857142" y2="17" fill="rgb(0, 0, 0)" stroke="rgb(204, 204, 204)" stroke-width="1px"></line><line x1="220.46316964285714" y1="0" x2="220.46316964285714" y2="17" fill="rgb(0, 0, 0)" stroke="rgb(204, 204, 204)" stroke-width="1px"></line><line x1="293.95089285714283" y1="0" x2="293.95089285714283" y2="17" fill="rgb(0, 0, 0)" stroke="rgb(204, 204, 204)" stroke-width="1px"></line><line x1="367.43861607142856" y1="0" x2="367.43861607142856" y2="17" fill="rgb(0, 0, 0)" stroke="rgb(204, 204, 204)" stroke-width="1px"></line><line x1="440.9263392857143" y1="0" x2="440.9263392857143" y2="17" fill="rgb(0, 0, 0)" stroke="rgb(204, 204, 204)" stroke-width="1px"></line><line x1="514.4140625" y1="0" x2="514.4140625" y2="17" fill="rgb(0, 0, 0)" stroke="rgb(204, 204, 204)" stroke-width="1px"></line><line x1="587.9017857142857" y1="0" x2="587.9017857142857" y2="17" fill="rgb(0, 0, 0)" stroke="rgb(204, 204, 204)" stroke-width="1px"></line><line x1="661.3895089285714" y1="0" x2="661.3895089285714" y2="17" fill="rgb(0, 0, 0)" stroke="rgb(204, 204, 204)" stroke-width="1px"></line><line x1="734.8772321428571" y1="0" x2="734.8772321428571" y2="17" fill="rgb(0, 0, 0)" stroke="rgb(204, 204, 204)" stroke-width="1px"></line><line x1="808.3649553571429" y1="0" x2="808.3649553571429" y2="17" fill="rgb(0, 0, 0)" stroke="rgb(204, 204, 204)" stroke-width="1px"></line><line x1="881.8526785714286" y1="0" x2="881.8526785714286" y2="17" fill="rgb(0, 0, 0)" stroke="rgb(204, 204, 204)" stroke-width="1px"></line><line x1="955.3404017857143" y1="0" x2="955.3404017857143" y2="17" fill="rgb(0, 0, 0)" stroke="rgb(204, 204, 204)" stroke-width="1px"></line><line x1="1028.828125" y1="0" x2="1028.828125" y2="17" fill="rgb(0, 0, 0)" stroke="rgb(204, 204, 204)" stroke-width="1px"></line></g><line x1="0" y1="0" x2="1028.828125" y2="0" style="visibility: inherit;" fill="rgb(0, 0, 0)" stroke="rgb(204, 204, 204)" stroke-width="1px"></line></g><g visibility="inherit"><g><g transform="translate(514.4140625,0)" style="visibility: inherit;"><text transform="translate(0,31)" style="text-anchor: middle; font-family: Roboto, sans-serif; font-size: 12px; font-weight: 200;" fill="rgb(33, 33, 33)" stroke="none" stroke-width="1px">December 11, 2022</text></g></g><g><line x1="0" y1="17" x2="0" y2="34" fill="rgb(0, 0, 0)" stroke="rgb(204, 204, 204)" stroke-width="1px"></line><line x1="1028.828125" y1="17" x2="1028.828125" y2="34" fill="rgb(0, 0, 0)" stroke="rgb(204, 204, 204)" stroke-width="1px"></line></g><line x1="0" y1="17" x2="1028.828125" y2="17" style="visibility: inherit;" fill="rgb(0, 0, 0)" stroke="rgb(204, 204, 204)" stroke-width="1px"></line></g></g></g></g></g></svg>