<svg viewBox="0 0 1070 400" xmlns="http://www.w3.org/2000/svg"><g><g><g><g><g><line x1="61.953125" y1="365" x2="56.953125" y2="365" style="visibility: inherit;" fill="rgb(0, 0, 0)" stroke="rgb(204, 204, 204)" stroke-width="1px"></line><line x1="61.953125" y1="338.9285714285714" x2="56.953125" y2="338.9285714285714" style="visibility: inherit;" fill="rgb(0, 0, 0)" stroke="rgb(204, 204, 204)" stroke-width="1px"></line><line x1="61.953125" y1="312.8571428571428" x2="56.953125" y2="312.8571428571428" style="visibility: inherit;" fill="rgb(0, 0, 0)" stroke="rgb(204, 204, 204)" stroke-width="1px"></line><line x1="61.953125" y1="286.7857142857142" x2="56.953125" y2="286.7857142857142" style="visibility: inherit;" fill="rgb(0, 0, 0)" stroke="rgb(204, 204, 204)" stroke-width="1px"></line><line x1="61.953125" y1="260.71428571428567" x2="56.953125" y2="260.71428571428567" style="visibility: inherit;" fill="rgb(0, 0, 0)" stroke="rgb(204, 204, 204)" stroke-width="1px"></line><line x1="61.953125" y1="234.64285714285703" x2="56.953125" y2="234.64285714285703" style="visibility: inherit;" fill="rgb(0, 0, 0)" stroke="rgb(204, 204, 204)" stroke-width="1px"></line><line x1="61.953125" y1="208.57142857142844" x2="56.953125" y2="208.57142857142844" style="visibility: inherit;" fill="rgb(0, 0, 0)" stroke="rgb(204, 204, 204)" stroke-width="1px"></line><line x1="61.953125" y1="182.49999999999983" x2="56.953125" y2="182.49999999999983" style="visibility: inherit;" fill="rgb(0, 0, 0)" stroke="rgb(204, 204, 204)" stroke-width="1px"></line><line x1="61.953125" y1="156.42857142857127" x2="56.953125" y2="156.42857142857127" style="visibility: inherit;" fill="rgb(0, 0, 0)" stroke="rgb(204, 204, 204)" stroke-width="1px"></line><line x1="61.953125" y1="130.35714285714297" x2="56.953125" y2="130.35714285714297" style="visibility: inherit;" fill="rgb(0, 0, 0)" stroke="rgb(204, 204, 204)" stroke-width="1px"></line><line x1="61.953125" y1="104.28571428571436" x2="56.953125" y2="104.28571428571436" style="visibility: inherit;" fill="rgb(0, 0, 0)" stroke="rgb(204, 204, 204)" stroke-width="1px"></line><line x1="61.953125" y1="78.21428571428577" x2="56.953125" y2="78.21428571428577" style="visibility: inherit;" fill="rgb(0, 0, 0)" stroke="rgb(204, 204, 204)" stroke-width="1px"></line><line x1="61.953125" y1="52.1428571428572" x2="56.953125" y2="52.1428571428572" style="visibility: inherit;" fill="rgb(0, 0, 0)" stroke="rgb(204, 204, 204)" stroke-width="1px"></line><line x1="61.953125" y1="26.0714285714286" x2="56.953125" y2="26.0714285714286" style="visibility: inherit;" fill="rgb(0, 0, 0)" stroke="rgb(204, 204, 204)" stroke-width="1px"></line><line x1="61.953125" y1="0" x2="56.953125" y2="0" style="visibility: inherit;" fill="rgb(0, 0, 0)" stroke="rgb(204, 204, 204)" stroke-width="1px"></line></g><g transform="translate(51.953125, 0)"><text x="0" y="365" dx="0em" dy="0.3em" style="text-anchor: end; visibility: hidden; font-family: Roboto, sans-serif; font-size: 12px; font-weight: 200;" fill="rgb(33, 33, 33)" stroke="none" stroke-width="1px">0.24</text><text x="0" y="338.9285714285714" dx="0em" dy="0.3em" style="text-anchor: end; visibility: inherit; font-family: Roboto, sans-serif; font-size: 12px; font-weight: 200;" fill="rgb(33, 33, 33)" stroke="none" stroke-width="1px">0.245</text><text x="0" y="312.8571428571428" dx="0em" dy="0.3em" style="text-anchor: end; visibility: inherit; font-family: Roboto, sans-serif; font-size: 12px; font-weight: 200;" fill="rgb(33, 33, 33)" stroke="none" stroke-width="1px">0.25</text><text x="0" y="286.7857142857142" dx="0em" dy="0.3em" style="text-anchor: end; visibility: inherit; font-family: Roboto, sans-serif; font-size: 12px; font-weight: 200;" fill="rgb(33, 33, 33)" stroke="none" stroke-width="1px">0.255</text><text x="0" y="260.71428571428567" dx="0em" dy="0.3em" style="text-anchor: end; visibility: inherit; font-family: Roboto, sans-serif; font-size: 12px; font-weight: 200;" fill="rgb(33, 33, 33)" stroke="none" stroke-width="1px">0.26</text><text x="0" y="234.64285714285703" dx="0em" dy="0.3em" style="text-anchor: end; visibility: inherit; font-family: Roboto, sans-serif; font-size: 12px; font-weight: 200;" fill="rgb(33, 33, 33)" stroke="none" stroke-width="1px">0.265</text><text x="0" y="208.57142857142844" dx="0em" dy="0.3em" style="text-anchor: end; visibility: inherit; font-family: Roboto, sans-serif; font-size: 12px; font-weight: 200;" fill="rgb(33, 33, 33)" stroke="none" stroke-width="1px">0.27</text><text x="0" y="182.49999999999983" dx="0em" dy="0.3em" style="text-anchor: end; visibility: inherit; font-family: Roboto, sans-serif; font-size: 12px; font-weight: 200;" fill="rgb(33, 33, 33)" stroke="none" stroke-width="1px">0.275</text><text x="0" y="156.42857142857127" dx="0em" dy="0.3em" style="text-anchor: end; visibility: inherit; font-family: Roboto, sans-serif; font-size: 12px; font-weight: 200;" fill="rgb(33, 33, 33)" stroke="none" stroke-width="1px">0.28</text><text x="0" y="130.35714285714297" dx="0em" dy="0.3em" style="text-anchor: end; visibility: inherit; font-family: Roboto, sans-serif; font-size: 12px; font-weight: 200;" fill="rgb(33, 33, 33)" stroke="none" stroke-width="1px">0.285</text><text x="0" y="104.28571428571436" dx="0em" dy="0.3em" style="text-anchor: end; visibility: inherit; font-family: Roboto, sans-serif; font-size: 12px; font-weight: 200;" fill="rgb(33, 33, 33)" stroke="none" stroke-width="1px">0.29</text><text x="0" y="78.21428571428577" dx="0em" dy="0.3em" style="text-anchor: end; visibility: inherit; font-family: Roboto, sans-serif; font-size: 12px; font-weight: 200;" fill="rgb(33, 33, 33)" stroke="none" stroke-width="1px">0.295</text><text x="0" y="52.1428571428572" dx="0em" dy="0.3em" style="text-anchor: end; visibility: inherit; font-family: Roboto, sans-serif; font-size: 12px; font-weight: 200;" fill="rgb(33, 33, 33)" stroke="none" stroke-width="1px">0.3</text><text x="0" y="26.0714285714286" dx="0em" dy="0.3em" style="text-anchor: end; visibility: inherit; font-family: Roboto, sans-serif; font-size: 12px; font-weight: 200;" fill="rgb(33, 33, 33)" stroke="none" stroke-width="1px">0.305</text><text x="0" y="0" dx="0em" dy="0.3em" style="text-anchor: end; visibility: hidden; font-family: Roboto, sans-serif; font-size: 12px; font-weight: 200;" fill="rgb(33, 33, 33)" stroke="none" stroke-width="1px">0.31</text></g><line x1="61.953125" y1="0" x2="61.953125" y2="365" fill="rgb(0, 0, 0)" stroke="rgb(204, 204, 204)" stroke-width="1px"></line></g></g><g transform="translate(61, 0)" clip-path="url(#clip_0)"><clipPath id="clip_0"><rect width="1008" height="365"></rect></clipPath><g><g><g><line x1="0" y1="0" x2="0" y2="365" fill="rgb(0, 0, 0)" stroke="rgb(66, 66, 66)" stroke-width="1px" opacity="0.25"></line><line x1="72.00334821428571" y1="0" x2="72.00334821428571" y2="365" fill="rgb(0, 0, 0)" stroke="rgb(66, 66, 66)" stroke-width="1px" opacity="0.25"></line><line x1="144.00669642857142" y1="0" x2="144.00669642857142" y2="365" fill="rgb(0, 0, 0)" stroke="rgb(66, 66, 66)" stroke-width="1px" opacity="0.25"></line><line x1="216.01004464285714" y1="0" x2="216.01004464285714" y2="365" fill="rgb(0, 0, 0)" stroke="rgb(66, 66, 66)" stroke-width="1px" opacity="0.25"></line><line x1="288.01339285714283" y1="0" x2="288.01339285714283" y2="365" fill="rgb(0, 0, 0)" stroke="rgb(66, 66, 66)" stroke-width="1px" opacity="0.25"></line><line x1="360.01674107142856" y1="0" x2="360.01674107142856" y2="365" fill="rgb(0, 0, 0)" stroke="rgb(66, 66, 66)" stroke-width="1px" opacity="0.25"></line><line x1="432.0200892857143" y1="0" x2="432.0200892857143" y2="365" fill="rgb(0, 0, 0)" stroke="rgb(66, 66, 66)" stroke-width="1px" opacity="0.25"></line><line x1="504.0234375" y1="0" x2="504.0234375" y2="365" fill="rgb(0, 0, 0)" stroke="rgb(66, 66, 66)" stroke-width="1px" opacity="0.25"></line><line x1="576.0267857142857" y1="0" x2="576.0267857142857" y2="365" fill="rgb(0, 0, 0)" stroke="rgb(66, 66, 66)" stroke-width="1px" opacity="0.25"></line><line x1="648.0301339285714" y1="0" x2="648.0301339285714" y2="365" fill="rgb(0, 0, 0)" stroke="rgb(66, 66, 66)" stroke-width="1px" opacity="0.25"></line><line x1="720.0334821428571" y1="0" x2="720.0334821428571" y2="365" fill="rgb(0, 0, 0)" stroke="rgb(66, 66, 66)" stroke-width="1px" opacity="0.25"></line><line x1="792.0368303571429" y1="0" x2="792.0368303571429" y2="365" fill="rgb(0, 0, 0)" stroke="rgb(66, 66, 66)" stroke-width="1px" opacity="0.25"></line><line x1="864.0401785714286" y1="0" x2="864.0401785714286" y2="365" fill="rgb(0, 0, 0)" stroke="rgb(66, 66, 66)" stroke-width="1px" opacity="0.25"></line><line x1="936.0435267857143" y1="0" x2="936.0435267857143" y2="365" fill="rgb(0, 0, 0)" stroke="rgb(66, 66, 66)" stroke-width="1px" opacity="0.25"></line><line x1="1008.046875" y1="0" x2="1008.046875" y2="365" fill="rgb(0, 0, 0)" stroke="rgb(66, 66, 66)" stroke-width="1px" opacity="0.25"></line></g><g><line x1="0" y1="365" x2="1008.046875" y2="365" fill="rgb(0, 0, 0)" stroke="rgb(66, 66, 66)" stroke-width="1px" opacity="0.25"></line><line x1="0" y1="338.9285714285714" x2="1008.046875" y2="338.9285714285714" fill="rgb(0, 0, 0)" stroke="rgb(66, 66, 66)" stroke-width="1px" opacity="0.25"></line><line x1="0" y1="312.8571428571428" x2="1008.046875" y2="312.8571428571428" fill="rgb(0, 0, 0)" stroke="rgb(66, 66, 66)" stroke-width="1px" opacity="0.25"></line><line x1="0" y1="286.7857142857142" x2="1008.046875" y2="286.7857142857142" fill="rgb(0, 0, 0)" stroke="rgb(66, 66, 66)" stroke-width="1px" opacity="0.25"></line><line x1="0" y1="260.71428571428567" x2="1008.046875" y2="260.71428571428567" fill="rgb(0, 0, 0)" stroke="rgb(66, 66, 66)" stroke-width="1px" opacity="0.25"></line><line x1="0" y1="234.64285714285703" x2="1008.046875" y2="234.64285714285703" fill="rgb(0, 0, 0)" stroke="rgb(66, 66, 66)" stroke-width="1px" opacity="0.25"></line><line x1="0" y1="208.57142857142844" x2="1008.046875" y2="208.57142857142844" fill="rgb(0, 0, 0)" stroke="rgb(66, 66, 66)" stroke-width="1px" opacity="0.25"></line><line x1="0" y1="182.49999999999983" x2="1008.046875" y2="182.49999999999983" fill="rgb(0, 0, 0)" stroke="rgb(66, 66, 66)" stroke-width="1px" opacity="0.25"></line><line x1="0" y1="156.42857142857127" x2="1008.046875" y2="156.42857142857127" fill="rgb(0, 0, 0)" stroke="rgb(66, 66, 66)" stroke-width="1px" opacity="0.25"></line><line x1="0" y1="130.35714285714297" x2="1008.046875" y2="130.35714285714297" fill="rgb(0, 0, 0)" stroke="rgb(66, 66, 66)" stroke-width="1px" opacity="0.25"></line><line x1="0" y1="104.28571428571436" x2="1008.046875" y2="104.28571428571436" fill="rgb(0, 0, 0)" stroke="rgb(66, 66, 66)" stroke-width="1px" opacity="0.25"></line><line x1="0" y1="78.21428571428577" x2="1008.046875" y2="78.21428571428577" fill="rgb(0, 0, 0)" stroke="rgb(66, 66, 66)" stroke-width="1px" opacity="0.25"></line><line x1="0" y1="52.1428571428572" x2="1008.046875" y2="52.1428571428572" fill="rgb(0, 0, 0)" stroke="rgb(66, 66, 66)" stroke-width="1px" opacity="0.25"></line><line x1="0" y1="26.0714285714286" x2="1008.046875" y2="26.0714285714286" fill="rgb(0, 0, 0)" stroke="rgb(66, 66, 66)" stroke-width="1px" opacity="0.25"></line><line x1="0" y1="0" x2="1008.046875" y2="0" fill="rgb(0, 0, 0)" stroke="rgb(66, 66, 66)" stroke-width="1px" opacity="0.25"></line></g></g></g><g><g><line x1="0" y1="1616.428571428571" x2="1008.046875" y2="1616.428571428571" fill="rgb(0, 0, 0)" stroke="rgb(153, 153, 153)" stroke-width="1.5px"></line></g></g><g><g><line x1="-2005039291.9587054" y1="0" x2="-2005039291.9587054" y2="365" fill="rgb(0, 0, 0)" stroke="rgb(153, 153, 153)" stroke-width="1.5px"></line></g></g><g><g><g><g><g><path stroke="rgb(255, 112, 67)" stroke-width="2px" d="M92.06108091517858,-66.28901940648952L103.20119893973215,29.80532256695759L114.16730887276786,89.79275198535076L125.28342578125,128.9740004979753L136.14633091517857,156.73380728311562L147.33085100446428,176.8084304122307L158.574173828125,191.99063712084788L169.50188197544645,203.78039065916843L180.67440150669643,213.88623145607423L191.59250920758927,222.3268011217055L202.7902299107143,229.82170342731658L214.067154296875,236.20795150082162L225.32967801339285,241.7820890802971L236.32218917410714,247.03731918563253L247.36510267857142,252.21099840769713L258.39001534598214,256.48828159367514L269.55413448660715,260.5255440965797L280.6078484933036,264.56863263555033L291.72756556919643,267.56736933945916L302.55446902901787,271.04548885515607L313.6213836495536,274.2043533755917L324.85990625,276.7671281797837L335.9748231026786,279.67587954727895L346.81852734375,281.8516613036098L357.797837890625,284.482401549541L368.6379419642857,286.4912023686211L379.55724972098216,288.7651961330043L390.38535323660716,290.5167909164882L401.2410580357143,292.399852814516L412.12436411830356,294.83356595026834L422.9728685825893,296.347974586855L433.91137723214285,297.9460155169049L444.8474857700893,299.63174360176606L455.59518554687503,301.23389939913494L466.52409374999996,302.80779688436667L477.3389966517857,304.21517584814734L488.3615092075893,305.20665322170566L499.17641210937495,306.3353990487209L510.29132896205357,308.23693327082555L521.0330284598215,309.3274262344256L531.8047293526785,310.42698580749857L542.7336375558036,311.5324797937622L553.6349444754464,312.61523111976214L564.5074500558036,313.86085489930815L575.3715552455358,314.4289408071841L586.187658203125,315.50370297816L597.1105661272321,316.69587684393906L607.8726665736607,317.5387116045334L618.9443814174107,318.6753731647912L629.752083984375,319.3273114931788L640.6665915178571,320.38591222411753L651.5738987165178,321.052090838928L662.5676099330357,321.60480609263834L673.3357106584821,321.9677695101533L684.1914154575893,322.6800011285346L695.1191236049107,323.9010473486401L705.9640279017857,324.2982190688279L716.7729305245535,325.12301963926035L727.7702419084821,325.67811523672935L738.6223465401786,326.39619539254545L749.3976476004465,327.0978236424781L760.3973590959821,327.56740662926404L771.2386632254464,327.9505333461398L781.9743624441965,328.49983538973436L793.0076755022321,329.1746403892136L803.8393791852678,330.1583462375911L814.6098800223214,330.64396146369984L825.5075867745536,331.3351389682183L836.3116891741071,331.2874887184229L847.2273967633928,332.1878397485679L858.5067212611607,332.91973695745446L870.1364620535714,333.1745074165797L881.368984375,333.53320686636545L892.3662957589286,333.7127698552203L903.2063998325893,334.49189114292403L914.0393035714286,334.76127321645856L925.0030133928572,335.00332363571346" style="fill: none;" fill="none"></path></g></g></g></g><g opacity="0.2"><g><g><g><path stroke="rgb(255, 112, 67)" stroke-width="2px" d="M70.02685630580356,-198.5895736728396L80.97016517857142,12.771823917116427L92.06108091517858,89.01543523584093L103.20119893973215,127.61454531124657L114.16730887276786,153.22053253650662L125.28342578125,171.21342497212544L136.14633091517857,186.96144044399261L147.33085100446428,198.78177591732566L158.574173828125,208.6540442705154L169.50188197544645,216.7387714556285L180.67440150669643,225.0020507403782L191.59250920758927,231.61453894206454L202.7902299107143,238.070541535105L214.067154296875,243.23736378124778L225.32967801339285,247.91794623647414L236.32218917410714,252.8223015580858L247.36510267857142,257.9062967641013L258.39001534598214,261.1968456847327L269.55413448660715,264.96990484850744L280.6078484933036,269.01941674096236L291.72756556919643,270.868495447295L302.55446902901787,274.87434055124004L313.6213836495536,277.6817576374326L324.85990625,279.5883335386003L335.9748231026786,282.87795007228846L346.81852734375,284.2468495028359L357.797837890625,287.3784264496394L368.6379419642857,288.70257130690976L379.55724972098216,291.26850017479484L390.38535323660716,292.44501709938044L401.2410580357143,294.4728033031736L412.12436411830356,297.51269553388863L422.9728685825893,298.01509669848843L433.91137723214285,299.70520343099315L444.8474857700893,301.48746107305794L455.59518554687503,302.9976171255111L466.52409374999996,304.5404067209788L477.3389966517857,305.7644753796713L488.3615092075893,306.2981115068708L499.17641210937495,307.5779679843357L510.29132896205357,310.3302188430513L521.0330284598215,310.527884875025L531.8047293526785,311.6374253375189L542.7336375558036,312.74945216519484L553.6349444754464,313.8071674534252L564.5074500558036,315.23208779948095L575.3715552455358,315.0543126889637L586.187658203125,316.68684452772135L597.1105661272321,318.00826992307384L607.8726665736607,318.4665381056921L618.9443814174107,319.92665605885634L629.752083984375,320.04499150174L640.6665915178571,321.5512626085962L651.5738987165178,321.7854471291814L662.5676099330357,322.21325733831947L673.3357106584821,322.36733428069516L684.1914154575893,323.4640544227191L695.1191236049107,325.2452242800167L705.9640279017857,324.7354417187826L716.7729305245535,326.0309933764593L727.7702419084821,326.2891868608338L738.6223465401786,327.1866869926452L749.3976476004465,327.87020432097563L760.3973590959821,328.0843425222805L771.2386632254464,328.37229468992774L781.9743624441965,329.10452923604413L793.0076755022321,329.91749295166557L803.8393791852678,331.2412493143762L814.6098800223214,331.1785462924412L825.5075867745536,332.096015044621L836.3116891741071,331.2350334014211L847.2273967633928,333.17898247923165L858.5067212611607,333.72543892690106L870.1364620535714,333.4549690144402L881.368984375,333.9280776892389L892.3662957589286,333.9104400362287L903.2063998325893,335.3495792831693L914.0393035714286,335.05781986883704L925.0030133928572,335.26978250060756" style="fill: none;" fill="none"></path></g></g></g></g></g></g><g transform="translate(61, 365)" clip-path="url(#clip_1)"><clipPath id="clip_1"><rect width="1008" height="35"></rect></clipPath><g><g visibility="inherit"><g><g transform="translate(36.001674107142854,0)" style="visibility: inherit;"><text transform="translate(0,14)" style="text-anchor: middle; font-family: Roboto, sans-serif; font-size: 12px; font-weight: 200;" fill="rgb(33, 33, 33)" stroke="none" stroke-width="1px">08:53 PM</text></g><g transform="translate(108.00502232142857,0)" style="visibility: inherit;"><text transform="translate(0,14)" style="text-anchor: middle; font-family: Roboto, sans-serif; font-size: 12px; font-weight: 200;" fill="rgb(33, 33, 33)" stroke="none" stroke-width="1px">08:54 PM</text></g><g transform="translate(180.00837053571428,0)" style="visibility: inherit;"><text transform="translate(0,14)" style="text-anchor: middle; font-family: Roboto, sans-serif; font-size: 12px; font-weight: 200;" fill="rgb(33, 33, 33)" stroke="none" stroke-width="1px">08:55 PM</text></g><g transform="translate(252.01171875,0)" style="visibility: inherit;"><text transform="translate(0,14)" style="text-anchor: middle; font-family: Roboto, sans-serif; font-size: 12px; font-weight: 200;" fill="rgb(33, 33, 33)" stroke="none" stroke-width="1px">08:56 PM</text></g><g transform="translate(324.0150669642857,0)" style="visibility: inherit;"><text transform="translate(0,14)" style="text-anchor: middle; font-family: Roboto, sans-serif; font-size: 12px; font-weight: 200;" fill="rgb(33, 33, 33)" stroke="none" stroke-width="1px">08:57 PM</text></g><g transform="translate(396.01841517857144,0)" style="visibility: inherit;"><text transform="translate(0,14)" style="text-anchor: middle; font-family: Roboto, sans-serif; font-size: 12px; font-weight: 200;" fill="rgb(33, 33, 33)" stroke="none" stroke-width="1px">08:58 PM</text></g><g transform="translate(468.02176339285717,0)" style="visibility: inherit;"><text transform="translate(0,14)" style="text-anchor: middle; font-family: Roboto, sans-serif; font-size: 12px; font-weight: 200;" fill="rgb(33, 33, 33)" stroke="none" stroke-width="1px">08:59 PM</text></g><g transform="translate(540.0251116071429,0)" style="visibility: inherit;"><text transform="translate(0,14)" style="text-anchor: middle; font-family: Roboto, sans-serif; font-size: 12px; font-weight: 200;" fill="rgb(33, 33, 33)" stroke="none" stroke-width="1px">09:00 PM</text></g><g transform="translate(612.0284598214286,0)" style="visibility: inherit;"><text transform="translate(0,14)" style="text-anchor: middle; font-family: Roboto, sans-serif; font-size: 12px; font-weight: 200;" fill="rgb(33, 33, 33)" stroke="none" stroke-width="1px">09:01 PM</text></g><g transform="translate(684.0318080357143,0)" style="visibility: inherit;"><text transform="translate(0,14)" style="text-anchor: middle; font-family: Roboto, sans-serif; font-size: 12px; font-weight: 200;" fill="rgb(33, 33, 33)" stroke="none" stroke-width="1px">09:02 PM</text></g><g transform="translate(756.03515625,0)" style="visibility: inherit;"><text transform="translate(0,14)" style="text-anchor: middle; font-family: Roboto, sans-serif; font-size: 12px; font-weight: 200;" fill="rgb(33, 33, 33)" stroke="none" stroke-width="1px">09:03 PM</text></g><g transform="translate(828.0385044642857,0)" style="visibility: inherit;"><text transform="translate(0,14)" style="text-anchor: middle; font-family: Roboto, sans-serif; font-size: 12px; font-weight: 200;" fill="rgb(33, 33, 33)" stroke="none" stroke-width="1px">09:04 PM</text></g><g transform="translate(900.0418526785714,0)" style="visibility: inherit;"><text transform="translate(0,14)" style="text-anchor: middle; font-family: Roboto, sans-serif; font-size: 12px; font-weight: 200;" fill="rgb(33, 33, 33)" stroke="none" stroke-width="1px">09:05 PM</text></g><g transform="translate(972.0452008928571,0)" style="visibility: inherit;"><text transform="translate(0,14)" style="text-anchor: middle; font-family: Roboto, sans-serif; font-size: 12px; font-weight: 200;" fill="rgb(33, 33, 33)" stroke="none" stroke-width="1px">09:06 PM</text></g></g><g><line x1="0" y1="0" x2="0" y2="17" fill="rgb(0, 0, 0)" stroke="rgb(204, 204, 204)" stroke-width="1px"></line><line x1="72.00334821428571" y1="0" x2="72.00334821428571" y2="17" fill="rgb(0, 0, 0)" stroke="rgb(204, 204, 204)" stroke-width="1px"></line><line x1="144.00669642857142" y1="0" x2="144.00669642857142" y2="17" fill="rgb(0, 0, 0)" stroke="rgb(204, 204, 204)" stroke-width="1px"></line><line x1="216.01004464285714" y1="0" x2="216.01004464285714" y2="17" fill="rgb(0, 0, 0)" stroke="rgb(204, 204, 204)" stroke-width="1px"></line><line x1="288.01339285714283" y1="0" x2="288.01339285714283" y2="17" fill="rgb(0, 0, 0)" stroke="rgb(204, 204, 204)" stroke-width="1px"></line><line x1="360.01674107142856" y1="0" x2="360.01674107142856" y2="17" fill="rgb(0, 0, 0)" stroke="rgb(204, 204, 204)" stroke-width="1px"></line><line x1="432.0200892857143" y1="0" x2="432.0200892857143" y2="17" fill="rgb(0, 0, 0)" stroke="rgb(204, 204, 204)" stroke-width="1px"></line><line x1="504.0234375" y1="0" x2="504.0234375" y2="17" fill="rgb(0, 0, 0)" stroke="rgb(204, 204, 204)" stroke-width="1px"></line><line x1="576.0267857142857" y1="0" x2="576.0267857142857" y2="17" fill="rgb(0, 0, 0)" stroke="rgb(204, 204, 204)" stroke-width="1px"></line><line x1="648.0301339285714" y1="0" x2="648.0301339285714" y2="17" fill="rgb(0, 0, 0)" stroke="rgb(204, 204, 204)" stroke-width="1px"></line><line x1="720.0334821428571" y1="0" x2="720.0334821428571" y2="17" fill="rgb(0, 0, 0)" stroke="rgb(204, 204, 204)" stroke-width="1px"></line><line x1="792.0368303571429" y1="0" x2="792.0368303571429" y2="17" fill="rgb(0, 0, 0)" stroke="rgb(204, 204, 204)" stroke-width="1px"></line><line x1="864.0401785714286" y1="0" x2="864.0401785714286" y2="17" fill="rgb(0, 0, 0)" stroke="rgb(204, 204, 204)" stroke-width="1px"></line><line x1="936.0435267857143" y1="0" x2="936.0435267857143" y2="17" fill="rgb(0, 0, 0)" stroke="rgb(204, 204, 204)" stroke-width="1px"></line><line x1="1008.046875" y1="0" x2="1008.046875" y2="17" fill="rgb(0, 0, 0)" stroke="rgb(204, 204, 204)" stroke-width="1px"></line></g><line x1="0" y1="0" x2="1008.046875" y2="0" style="visibility: inherit;" fill="rgb(0, 0, 0)" stroke="rgb(204, 204, 204)" stroke-width="1px"></line></g><g visibility="inherit"><g><g transform="translate(504.0234375,0)" style="visibility: inherit;"><text transform="translate(0,31)" style="text-anchor: middle; font-family: Roboto, sans-serif; font-size: 12px; font-weight: 200;" fill="rgb(33, 33, 33)" stroke="none" stroke-width="1px">December 11, 2022</text></g></g><g><line x1="0" y1="17" x2="0" y2="34" fill="rgb(0, 0, 0)" stroke="rgb(204, 204, 204)" stroke-width="1px"></line><line x1="1008.046875" y1="17" x2="1008.046875" y2="34" fill="rgb(0, 0, 0)" stroke="rgb(204, 204, 204)" stroke-width="1px"></line></g><line x1="0" y1="17" x2="1008.046875" y2="17" style="visibility: inherit;" fill="rgb(0, 0, 0)" stroke="rgb(204, 204, 204)" stroke-width="1px"></line></g></g></g></g></g></svg>